<?xml version="1.0" standalone="no"?>
<!DOCTYPE svg PUBLIC "-//W3C//DTD SVG 1.1//EN" "http://www.w3.org/Graphics/SVG/1.1/DTD/svg11.dtd" >
<svg xmlns="http://www.w3.org/2000/svg" xmlns:xlink="http://www.w3.org/1999/xlink" version="1.1">
<metadata>
Created by FontForge 20170731 at Mon Jan 25 18:18:23 1999
 By Aleksey,,,
(c) Jean-Francois Porches, 1995. Published by FontShop International. FontFont release 13
</metadata>
<defs>
<font id="AngieBlack" horiz-adv-x="560" >
  <font-face 
    font-family="Angie Black"
    font-weight="400"
    font-stretch="normal"
    units-per-em="1000"
    panose-1="0 0 9 0 0 0 0 0 0 0"
    ascent="800"
    descent="-200"
    x-height="492"
    cap-height="697"
    bbox="-86 -251 1265 881"
    underline-thickness="20"
    underline-position="-163"
    unicode-range="U+0020-F002"
  />
<missing-glyph horiz-adv-x="500" 
d="M63 0v881h375v-881h-375zM125 63h250v756h-250v-756z" />
    <glyph glyph-name=".notdef" horiz-adv-x="500" 
d="M63 0v881h375v-881h-375zM125 63h250v756h-250v-756z" />
    <glyph glyph-name=".null" horiz-adv-x="0" 
 />
    <glyph glyph-name="nonmarkingreturn" horiz-adv-x="278" 
 />
    <glyph glyph-name="space" unicode=" " horiz-adv-x="278" 
 />
    <glyph glyph-name="exclam" unicode="!" horiz-adv-x="367" 
d="M289 699q-9 -47 -16 -104l-28 -228q-11 -90 -11 -139h-44l-45 -2v23q0 9 -4 49l-7 70l-28 233q-1 2 -7 51q-3 20 -12 43h40zM268 79q0 -56 -18 -73t-75 -17q-38 0 -50 15t-12 54q0 61 17 80.5t77 19.5q39 0 50 -15t11 -55v-9z" />
    <glyph glyph-name="quotedbl" unicode="&#x22;" horiz-adv-x="506" 
d="M416 647q0 -30 -9 -88l-27 -175h-58l-27 175q-9 58 -9 88q0 52 31 56h68q31 -4 31 -56zM220 647q0 -23 -10 -88l-27 -175h-57l-27 175q-10 65 -10 88q0 50 31 56h69q31 -6 31 -56z" />
    <glyph glyph-name="numbersign" unicode="#" horiz-adv-x="540" 
d="M540 501l-7 -99l-63 3h-53l-18 -110l53 -1l71 3l-7 -98l-61 3h-72l-22 -118l-8 -80l-81 -7l20 90l20 115h-135l-20 -114l-10 -84l-81 -7l21 95l19 110h-45l-60 -3l10 98l56 -3l55 1l18 110h-64l-57 -3l10 99l50 -3h76l20 118l10 78l82 6l-22 -88l-19 -114h135l21 119
l9 77l82 6l-24 -98l-17 -104h43zM346 405h-135l-18 -110h135z" />
    <glyph glyph-name="dollar" unicode="$" 
d="M526 227q0 -92 -62 -156q-56 -58 -150 -82q1 -23 3 -81l-56 -24l-40 -25l-11 7q11 60 16 113q-41 1 -75 6q-62 9 -122 35l12 41l12 53l9 54h22q30 -40 53 -59q43 -35 88 -35v194l-8 4q-96 48 -127 79q-52 52 -52 132q0 117 97 186q44 31 114 44l-3 109l56 23l40 26l11 -7
q-12 -69 -18 -144q82 -5 163 -40l-17 -45l-16 -52l-9 -37l-18 -2q-47 68 -99 77v-180l7 -4l71 -35q109 -54 109 -175zM259 471v151q-19 -8 -27 -14q-29 -23 -29 -59q0 -42 56 -78zM362 154q0 50 -58 81v-155q58 19 58 74z" />
    <glyph glyph-name="percent" unicode="%" horiz-adv-x="851" 
d="M842 186q0 -96 -54 -148.5t-150 -52.5q-187 0 -187 180q0 95 54 146.5t150 51.5q187 0 187 -177zM704 737q-11 -16 -36 -51q-4 -6 -57 -93q-16 -24 -55 -95l-272 -528l-55 -5l-55 -9l-9 11q10 13 37 50q53 77 110 188l273 528l54 5l55 10zM403 519q0 -96 -53.5 -149
t-149.5 -53q-187 0 -187 181q0 95 54 146.5t150 51.5q186 0 186 -177zM713 178q0 138 -64 138q-47 0 -62 -56q-8 -30 -8 -94q0 -134 65 -134q45 0 61 55q8 28 8 91zM275 512q0 136 -64 136q-48 0 -63 -56q-8 -30 -8 -94q0 -133 66 -133q46 0 61 55q8 30 8 92z" />
    <glyph glyph-name="ampersand" unicode="&#x26;" horiz-adv-x="798" 
d="M793 482l-17 -21l-31 -44l-16 -27q-37 11 -71 11h-32l-1 -7q54 -31 54 -101q0 -68 -65 -139q52 -45 107 -86q14 -11 59 -37l-5 -24l-62 -5l-110 -14l-43 -8l-11 13l-20 22l-22 23l-12 11q-95 -72 -207 -72t-185 63q-78 66 -78 176q0 61 30.5 113t84.5 79q-36 58 -36 113
q0 99 90 153q75 46 181 46q54 0 102 -9q23 -4 64 -17l-12 -50l-8 -45l-5 -37l-22 -4q-25 31 -44 45q-34 25 -75 25q-40 0 -64 -24t-24 -64q0 -64 102 -168q12 -12 47 -48q11 -13 45 -47l41 -38l22 -23q20 35 20 71q0 50 -29 84.5t-78 34.5q-13 0 -33 -5l-8 12l12 20l17 30
l12 26h12q6 -1 8 -1q34 -1 47 -1h138q13 0 54 4l68 8zM428 106q-106 89 -190 183q-11 13 -42 47l-13 14q-20 -27 -20 -65q0 -79 59 -138.5t138 -59.5q42 0 68 19z" />
    <glyph glyph-name="quotesingle" unicode="'" horiz-adv-x="309" 
d="M220 647q0 -23 -10 -88l-27 -175h-57l-27 175q-10 65 -10 88q0 50 31 56h69q31 -6 31 -56z" />
    <glyph glyph-name="parenleft" unicode="(" horiz-adv-x="408" 
d="M381 -120l-16 -13l-19 -22q-14 8 -33 19q-87 51 -135 111q-103 127 -103 307q0 236 167 369q39 31 104 67l19 -22l16 -13l-2 -9q-6 -4 -24 -15q-115 -72 -136 -249q-5 -42 -5 -128v-64q0 -179 89 -272q28 -29 76 -57z" />
    <glyph glyph-name="parenright" unicode=")" horiz-adv-x="408" 
d="M333 282q0 -234 -167 -370q-37 -30 -104 -67l-18 22l-17 13l2 10q14 7 25 14q114 72 135 249q5 42 5 128v64q0 180 -89 272q-29 30 -76 57l-2 9l17 13l18 22q105 -52 168 -130q103 -126 103 -306z" />
    <glyph glyph-name="asterisk" unicode="*" horiz-adv-x="497" 
d="M435 518l-119 -16l-3 -7l88 -82l-96 -70l-26 61l-26 50h-8l-25 -52l-27 -61l-44 37l-52 34l47 43l42 40l-2 8l-62 7l-61 8l19 53l19 61l55 -32l49 -27l9 6l-9 55l-13 62l58 -1l61 1l-13 -59l-10 -60l9 -5l48 27l55 34z" />
    <glyph glyph-name="plus" unicode="+" 
d="M519 246h-187l1 -186h-105l1 186h-187l-1 104h188l-1 186h105l-1 -186h186z" />
    <glyph glyph-name="comma" unicode="," horiz-adv-x="297" 
d="M225 49q0 -60 -40 -110q-43 -54 -125 -118l-35 45l24 27q52 58 52 109q0 50 -35 96l1 17q11 4 35 16q43 21 63 21q30 0 47 -38q13 -30 13 -65z" />
    <glyph glyph-name="hyphen" unicode="-" horiz-adv-x="342" 
d="M341 331l-20 -104q-56 10 -107 10h-82q-79 0 -125 -17l-6 13l11 51l9 53q50 -10 108 -10h82q81 0 125 16z" />
    <glyph glyph-name="hyphen" unicode="&#x2010;" horiz-adv-x="342" 
d="M341 331l-20 -104q-56 10 -107 10h-82q-79 0 -125 -17l-6 13l11 51l9 53q50 -10 108 -10h82q81 0 125 16z" />
    <glyph glyph-name="period" unicode="." horiz-adv-x="301" 
d="M238 79q0 -56 -18 -73t-75 -17q-38 0 -50 15t-12 54q0 65 17 84q18 16 76 16q39 0 50.5 -15t11.5 -55v-9z" />
    <glyph glyph-name="slash" unicode="/" horiz-adv-x="363" 
d="M397 731q-40 -71 -112 -251l-2 -5l-199 -560l-55 -12l-53 -17l-10 10l29 55q10 19 44 100q12 26 41 100l199 560l53 13l53 17z" />
    <glyph glyph-name="zero" unicode="0" 
d="M550 364q0 -154 -62 -256q-75 -123 -219 -123q-137 0 -204 111q-55 91 -55 237q0 154 63 257q76 124 220 124q139 0 204 -112q53 -89 53 -238zM373 355q3 288 -89 288q-98 0 -98 -310q0 -278 90 -278q94 0 97 300z" />
    <glyph glyph-name="one" unicode="1" 
d="M428 0l-65 2h-95l-56 -2q4 28 6 45q6 58 6 138l1 268q0 58 -2 69q-8 42 -41 42q-20 0 -41 -5l-59 -14q-15 -3 -37 -12l-9 8l30 71l11 35q37 3 78 12l189 42q34 8 62 16l15 -17q-3 -20 -6 -42q-6 -48 -6 -134l-1 -333q0 -128 20 -189z" />
    <glyph glyph-name="two" unicode="2" 
d="M531 136l-11 -25l-29 -83l-7 -29q-8 0 -36 1q-39 1 -56 1l-341 -1v63l-1 25q262 179 262 376q0 59 -26 99q-30 47 -86 47q-46 0 -75 -26q-4 -3 -36 -41l-18 4l-3 38l-3 47l-4 36q29 14 50 21q75 25 152 25q102 0 164.5 -56t62.5 -157q0 -108 -74 -206q-43 -57 -138 -134
l-53 -43l115 -1q124 -1 175 32z" />
    <glyph glyph-name="three" unicode="3" 
d="M514 227q0 -118 -100 -186q-88 -60 -211 -60q-27 0 -43 1q-48 3 -95 14l-8 32l-13 48l-14 40l19 12q18 -14 28 -20q42 -26 95 -26q65 0 104 31q44 34 44 97q0 103 -147 103q-23 0 -70 -4l2 31v47l-1 30q35 -4 54 -4q145 0 145 110q0 91 -95 91q-59 0 -99 -63l-19 6l-1 28
l-5 49l-6 36q8 3 33 13q79 31 158 31q87 0 143 -35q67 -42 67 -124q0 -67 -45 -106q-22 -19 -101 -57l1 -7h20q76 0 118 -41t42 -117z" />
    <glyph glyph-name="four" unicode="4" 
d="M567 271l-10 -31l-13 -42l-8 -30q-20 2 -44 2h-19v-11q0 -98 20 -159l-51 2h-94l-53 -2q11 59 11 107q0 9 1 26.5t1 26.5v10l-298 -1l-3 51l-6 52l29 38l38 52l142 206q10 14 39 57q13 20 41 69l49 1l90 7l52 5q-9 -114 -9 -167l1 -262l20 1q31 2 62 6zM314 553l-19 -30
l-42 -60l-134 -190l37 1l52 -2l103 2z" />
    <glyph glyph-name="five" unicode="5" 
d="M524 685l-18 -39l-20 -54l-14 -46q-17 4 -28 6q-33 5 -75 5l-174 -1l-2 -33l2 -65h10q145 0 214 -50q89 -64 89 -176q0 -116 -94 -186q-86 -63 -206 -63q-45 0 -131 15l-6 35l-12 49l-10 35l20 11q51 -44 116 -44q59 0 98 28q45 32 45 88q0 111 -179 111q-22 0 -62 -4
l2 42l2 56l1 199q0 12 -2 45t-2 47l84 -2h232l65 4l43 4z" />
    <glyph glyph-name="six" unicode="6" 
d="M551 241q0 -117 -77 -188t-195 -71q-124 0 -190.5 68t-66.5 192q0 160 115 297q106 125 265 186l27 -26l28 -25l24 -19l-7 -17q-129 -15 -209 -145q-69 -113 -69 -245q0 -63 17 -112q24 -69 76 -69q46 0 67 56q15 39 15 95q0 127 -80 127q-18 0 -38 -7l4 37l3 37
q6 3 21 11q37 18 86 18q86 0 135 -56.5t49 -143.5z" />
    <glyph glyph-name="seven" unicode="7" 
d="M555 584q-52 -62 -143 -236q-64 -122 -87 -178q-36 -89 -43 -170l-50 -1l-128 -4l-13 15q40 60 169 291l124 222h-77l-141 -1q-53 0 -83 -10q-18 -6 -41 -23l-23 8l17 53l21 81l12 64h71q4 0 14 -1h295q48 0 81 2l5 -32l10 -45z" />
    <glyph glyph-name="eight" unicode="8" 
d="M545 203q0 -108 -91 -168q-78 -52 -192 -52q-102 0 -167 39q-80 48 -80 143q0 111 142 193q-57 35 -80 65q-31 40 -31 104q0 95 82 146q70 44 170 44q87 0 144 -36q68 -42 68 -124q0 -59 -36 -100q-2 -3 -68 -54q139 -72 139 -200zM388 560q0 37 -21.5 61t-58.5 24
q-34 0 -56.5 -22t-22.5 -56q0 -68 93 -114q66 50 66 107zM363 154q0 60 -59 105q-25 20 -67 46q-28 -20 -46 -38q-44 -43 -44 -102q0 -50 29 -78.5t79 -28.5q45 0 76.5 26t31.5 70z" />
    <glyph glyph-name="nine" unicode="9" 
d="M541 455q0 -162 -115 -297q-104 -124 -265 -186l-27 26l-28 25l-24 19l7 17q131 15 210 145q68 111 68 245q0 63 -17 112q-24 69 -76 69q-46 0 -67 -56q-15 -39 -15 -95q0 -127 80 -127q18 0 38 7l-4 -37l-3 -37q-6 -3 -21 -11q-37 -18 -86 -18q-85 0 -136 58
q-48 55 -48 142q0 116 79 188q76 71 193 71q124 0 190.5 -68t66.5 -192z" />
    <glyph glyph-name="colon" unicode=":" horiz-adv-x="315" 
d="M238 79q0 -56 -18 -73t-75 -17q-38 0 -50 15t-12 54q0 65 17 84q18 16 76 16q39 0 50.5 -15t11.5 -55v-9zM238 414q0 -57 -17.5 -73.5t-75.5 -16.5q-38 0 -51 16q-11 13 -11 53q0 61 16.5 80t76.5 19q39 0 50.5 -14.5t11.5 -54.5v-9z" />
    <glyph glyph-name="semicolon" unicode=";" horiz-adv-x="348" 
d="M257 414q0 -57 -17.5 -73.5t-75.5 -16.5q-38 0 -51 16q-11 13 -11 53q0 61 16.5 80t76.5 19q39 0 50.5 -14.5t11.5 -54.5v-9zM253 49q0 -61 -38 -111q-31 -41 -127 -117l-18 23l-18 22l25 27q52 56 52 109q0 48 -36 96l2 17l34 16q45 21 63 21q29 0 47 -39q14 -31 14 -64
z" />
    <glyph glyph-name="less" unicode="&#x3c;" 
d="M547 68l-534 234v99l534 237v-111l-392 -176l392 -172v-111z" />
    <glyph glyph-name="equal" unicode="=" 
d="M547 324h-534v102h534v-102zM547 157h-534v102h534v-102z" />
    <glyph glyph-name="greater" unicode="&#x3e;" 
d="M547 302l-534 -234v111l391 172l-391 176v111l534 -237v-99z" />
    <glyph glyph-name="question" unicode="?" horiz-adv-x="453" 
d="M428 556q0 -65 -35.5 -113t-97.5 -69q-23 -8 -64 -13l-7 -29l-9 -40l-11 -65l-39 2l-34 -2l-5 29l-5 34l-8 48q-1 9 -18 84h18q11 -1 14 -1q138 0 138 109q0 40 -24.5 67t-64.5 27q-58 0 -93 -59l-22 7v29l-7 83q104 40 183 40q85 0 136 -41q55 -44 55 -127zM246 79
q0 -56 -18 -73t-75 -17q-38 0 -50 15t-12 54q0 65 17 84q18 16 76 16q39 0 50.5 -15t11.5 -55v-9z" />
    <glyph glyph-name="at" unicode="@" horiz-adv-x="786" 
d="M744 416q0 -119 -59 -188q-62 -73 -180 -73q-19 0 -71 6q1 30 6 94q-20 -25 -43 -46q-59 -56 -101 -56q-47 0 -69 51q-16 37 -16 91q0 118 64 188.5t180 70.5q48 0 103 -16q-11 -41 -18 -94l-16 -127q-5 -40 -5 -65q0 -41 29 -41q57 0 91 71q27 57 27 121
q0 103 -65.5 170.5t-168.5 67.5q-138 0 -221 -100q-78 -94 -78 -235q0 -119 55 -187q60 -74 176 -74q114 0 218 90l47 -45q-32 -29 -45 -39q-91 -71 -232 -71q-188 0 -266 137q-45 79 -45 175q0 174 118 297.5t291 123.5q133 0 213.5 -81.5t80.5 -215.5zM459 466
q0 33 -52 33q-57 0 -86 -73q-21 -53 -21 -120q0 -79 35 -79q29 0 72 55q24 30 33 57q6 16 11 57l6 45q2 15 2 25z" />
    <glyph glyph-name="A" unicode="A" horiz-adv-x="736" 
d="M740 0l-55 2h-129l-74 -2q-1 66 -22 136l-22 73l-75 2h-88l-76 -2l-23 -75q-13 -42 -13 -84q0 -25 8 -50l-34 2h-97l-52 -2l-4 11l4 7l18 33q5 12 26 58q8 16 28 62l159 403q27 68 41 126l53 2l115 10l60 9q11 -57 27 -103l149 -441q34 -102 76 -177zM414 300l-85 291
l-99 -291l58 -2h57z" />
    <glyph glyph-name="B" unicode="B" horiz-adv-x="752" 
d="M705 225q0 -78 -46 -136.5t-121 -78.5q-41 -11 -116 -11h-15l-109 2l-212 -1q4 21 6 45q5 53 6 145l2 315q0 70 -3 87q-10 48 -56 48h-8l21 56l116 -1h150l135 2q194 3 194 -144q0 -64 -42 -104q-30 -29 -99 -57l1 -9q15 1 41 1q73 0 114 -42.5t41 -116.5zM497 216
q0 122 -113 122q-25 0 -63 -6l8 39l7 38q11 -1 28 -1q84 0 84 110q0 102 -99 102q-5 0 -47 -2l-3 -86l-1 -345q0 -61 11 -81q17 -31 70 -31q118 0 118 141z" />
    <glyph glyph-name="C" unicode="C" horiz-adv-x="707" 
d="M674 678l-14 -51l-15 -73l-6 -42l-25 -5q-72 119 -173 119q-96 0 -143 -86q-37 -67 -37 -173q0 -113 51 -189q58 -88 166 -88q80 0 156 62l22 -11l-15 -36l-16 -49l-11 -40q-102 -36 -216 -36q-167 0 -264 99.5t-97 266.5q0 178 125 280q115 93 298 93q94 0 214 -41z" />
    <glyph glyph-name="D" unicode="D" horiz-adv-x="836" 
d="M798 392q0 -122 -55 -215q-58 -99 -166 -144q-82 -34 -212 -34q-10 0 -15 1l-225 2l-40 -2q9 45 11 117l2 73l1 315q0 72 -3 86q-10 49 -55 49h-8l20 56l33 -1h103q44 0 118 1l74 1q38 1 105 -1q131 -3 197 -48q115 -79 115 -256zM577 346q0 128 -44 190q-52 75 -174 75
q-28 0 -57 -5l-3 -87l-2 -293q0 -12 2 -48q3 -51 22.5 -69t70.5 -18q185 0 185 255z" />
    <glyph glyph-name="E" unicode="E" horiz-adv-x="622" 
d="M600 141l-12 -53l-9 -53l-4 -39l-39 3l-450 1q4 21 6 45q5 53 6 145l2 315q0 70 -3 87q-10 48 -56 48h-8l21 56l135 -1l322 2q1 0 8 1h13h29l-12 -39l-15 -61l-6 -35l-21 -2q-22 32 -48 41q-41 14 -98 14q-7 0 -59 -2l-3 -95l-1 -89h112q35 0 107 6l-2 -25l-2 -45l3 -34
q-99 6 -140 6q-3 0 -79 -2v-110q0 -15 2 -48q3 -48 18 -65q22 -24 100 -24q103 0 160 58z" />
    <glyph glyph-name="F" unicode="F" horiz-adv-x="595" 
d="M560 698l-11 -39l-15 -61l-7 -35l-21 -2q-22 32 -48 41q-41 14 -98 14q-8 0 -58 -2l-4 -95l-1 -108l61 -1q-6 0 51 1q26 0 107 5l-2 -25l-2 -46l3 -35q-79 6 -140 6q-40 0 -78 -2v-125q0 -131 19 -189l-56 2h-124l-52 -2q5 28 7 45q5 40 6 145l3 315q1 69 -3 86
q-11 49 -56 49h-8l21 56l135 -1l321 2q1 0 8 1h13h29z" />
    <glyph glyph-name="G" unicode="G" horiz-adv-x="788" 
d="M728 331q-7 -83 -7 -108v-62l2 -111l2 -26q-22 -6 -83 -20q-99 -22 -203 -22q-267 0 -362 185q-40 78 -40 173q0 184 127 285q116 93 305 93q114 0 246 -48l-15 -52l-22 -104l-25 -2q-34 51 -68 77q-55 42 -129 42q-104 0 -155 -86q-42 -70 -42 -181t34 -189
q46 -105 143 -105q90 0 90 81q0 13 -1 20l-2 39q-2 34 -13 48t-43 14h-8l20 59l59 -1z" />
    <glyph glyph-name="H" unicode="H" horiz-adv-x="849" 
d="M773 0l-56 2h-125l-51 -2q12 80 12 190v139h-51l-55 -1h-62l-44 -1h-43v-138q0 -128 20 -189l-56 2h-125l-51 -2q4 21 6 45q5 53 6 145l2 315q0 70 -3 87q-10 48 -56 48h-8l21 56l57 -1h138l58 2q-8 -102 -8 -165v-108l89 -2h62l51 2l53 1v83q0 129 -20 188l56 -1h114
l58 2l-4 -56q-4 -55 -4 -109l-1 -343q0 -128 20 -189z" />
    <glyph glyph-name="I" unicode="I" horiz-adv-x="394" 
d="M318 0l-56 2h-125l-51 -2q4 21 6 45q5 53 6 145l2 315q0 70 -3 87q-10 48 -56 48h-8l21 56l57 -1h138l58 2q-8 -94 -8 -165l-1 -343q0 -128 20 -189z" />
    <glyph glyph-name="J" unicode="J" horiz-adv-x="394" 
d="M307 697q-8 -106 -8 -165l-1 -353q0 -87 -7 -134q-12 -80 -55 -135q-35 -43 -113 -95q-29 -20 -104 -62l-41 24l-43 20l-2 19q124 53 151 209q12 68 14 281l2 199q1 67 -8 104q-7 31 -51 31h-25l21 56l74 -1h138z" />
    <glyph glyph-name="K" unicode="K" horiz-adv-x="761" 
d="M765 10l-3 -11l-57 2l-129 -3l-70 -3l-8 17q-6 12 -30 66q-4 8 -45 89q-27 54 -79 149l-46 -46v-81q0 -128 20 -189l-56 2h-125l-51 -2q4 21 6 45q5 53 6 145l2 315q0 70 -3 87q-10 48 -56 48h-8l21 56l57 -1h138l58 2q-8 -102 -8 -165v-125l120 121q20 20 53 62
q26 33 36 49q15 25 21 57l56 -1h105l48 2l1 -18q-10 -7 -33 -23q-39 -28 -117 -107l-102 -104l8 -14q17 -27 65 -109l80 -138q47 -80 88 -132q5 -7 37 -42z" />
    <glyph glyph-name="L" unicode="L" horiz-adv-x="603" 
d="M590 148l-11 -49l-10 -56l-5 -47l-39 3l-312 3l-127 -2q4 21 6 45q5 53 6 145l2 315q0 70 -3 87q-10 48 -56 48h-8l21 56l56 -1h138l59 2q-9 -108 -9 -165l-1 -306q0 -15 2 -48q3 -49 18 -66q22 -24 94 -24q100 0 157 67z" />
    <glyph glyph-name="M" unicode="M" horiz-adv-x="1054" 
d="M1000 0l-56 2h-124l-51 -2q6 54 6 103v14q0 49 -1 73l-13 316l-171 -392q-30 -69 -37 -120l-38 1l-87 -2q-4 38 -35 112l-168 397l-4 -80l-13 -231q-2 -36 -2 -61q0 -80 15 -130l-59 2h-46l-49 -2q19 71 28 188l23 312q3 41 3 66v4q0 38 -8 51q-12 19 -46 19h-8l20 56
l60 -1l234 3q7 -42 26 -89l140 -358l25 57l123 291q17 40 28 99l62 -2l127 -1l59 1q-5 -56 -5 -95q0 -17 2 -70l13 -343q5 -122 27 -188z" />
    <glyph glyph-name="N" unicode="N" horiz-adv-x="825" 
d="M746 -5l-86 1l-84 -1q-45 70 -67 99l-290 379l1 -52l5 -232q1 -69 14 -141q4 -25 14 -48l-56 2h-53l-52 -2q5 28 7 45q5 47 6 145l2 315q0 70 -3 87q-10 48 -56 48h-8l21 56l57 -1l138 1l62 2q44 -78 67 -110l230 -316l-1 71l-5 164q-3 86 -13 141q-4 23 -15 48l56 -1h54
l52 1q-9 -40 -11 -117l-2 -72l-1 -316q0 -17 2 -61q3 -68 15 -135z" />
    <glyph glyph-name="O" unicode="O" horiz-adv-x="863" 
d="M826 361q0 -179 -116 -284q-112 -100 -293 -100q-173 0 -275 95q-105 97 -105 269q0 174 115 280q112 103 287 103q249 0 342 -176q45 -85 45 -187zM605 342q0 114 -31 188q-43 105 -141 105q-175 0 -175 -278q0 -116 32 -190q44 -103 144 -103q171 0 171 278z" />
    <glyph glyph-name="P" unicode="P" horiz-adv-x="712" 
d="M681 512q0 -227 -287 -227h-9q-9 1 -15 1h-51l9 40l7 45q24 -3 39 -3q52 0 78 37q24 33 24 87q0 125 -123 125q-18 0 -51 -4l-3 -81l-1 -343q0 -128 20 -189l-56 2h-125l-51 -2q4 21 6 45q5 53 6 145l2 315q0 70 -3 87q-10 48 -56 48h-8l21 56l57 -1h245q41 0 81 1l40 1
q204 5 204 -185z" />
    <glyph glyph-name="Q" unicode="Q" horiz-adv-x="865" 
d="M892 -121l-1 -23l-71 -14l-99 -23l-59 -16l-17 12l-24 16q-35 24 -107 69q-17 10 -63 37q-52 31 -72 36q-1 1 -23 6q-3 1 -18 3q-142 21 -222 119q-79 95 -79 240q0 176 116 281q111 102 289 102q247 0 339 -175q45 -86 45 -189q0 -137 -69 -230.5t-200 -134.5l26 -11
l27 -12q184 -82 282 -93zM605 342q0 114 -31 188q-43 105 -141 105q-175 0 -175 -278q0 -116 32 -190q44 -103 144 -103q171 0 171 278z" />
    <glyph glyph-name="R" unicode="R" horiz-adv-x="759" 
d="M772 10l-3 -11l-57 2l-129 -3l-70 -3l-8 18q-3 6 -31 65q-48 101 -88 173q-16 29 -22 37q-14 18 -36 18h-8l9 38l7 40q24 -3 39 -3q50 0 76 34q24 31 24 83q0 119 -123 119q-18 0 -50 -4l-2 -37q-1 -17 -1 -44l-1 -343q0 -128 20 -189l-56 2h-125l-51 -2q4 21 6 45
q5 53 6 145l2 315q0 70 -3 87q-10 48 -56 48h-8l21 56l57 -1l371 2q197 1 197 -160q0 -129 -138 -170l106 -183q49 -83 88 -132q6 -7 37 -42z" />
    <glyph glyph-name="S" unicode="S" horiz-adv-x="572" 
d="M534 227q0 -117 -96 -186q-85 -62 -207 -62q-96 0 -194 41l12 41l12 53l10 54l21 2q65 -98 157 -98q43 0 72 19q33 22 33 63q0 42 -43 73q-17 12 -80 42q-96 45 -133 82q-52 51 -52 132q0 115 86 179q77 58 196 58q31 0 54 -3q54 -7 124 -37l-17 -45l-15 -52l-10 -37
l-18 -2q-30 43 -54 59q-35 23 -78 23q-37 0 -61 -18q-27 -20 -27 -55q0 -40 47 -73q21 -15 82 -43q96 -45 130 -80q49 -51 49 -130z" />
    <glyph glyph-name="T" unicode="T" horiz-adv-x="650" 
d="M662 698l-11 -39l-15 -61l-6 -35l-21 -2q-37 55 -143 55q-24 0 -43 -2l-3 -82l-1 -343q0 -128 20 -189l-56 2h-125l-51 -2q13 72 12 190l-2 424h-7q-77 0 -112 -8q-55 -13 -98 -52l-20 10l8 39l10 51l7 44q151 -5 321 -5q178 0 336 5z" />
    <glyph glyph-name="U" unicode="U" horiz-adv-x="808" 
d="M732 696q-4 -25 -6 -44q-6 -58 -6 -145v-293q0 -124 -98 -186q-82 -52 -214 -52q-43 0 -88 6q-173 23 -208 144q-14 48 -14 131v60l2 188q1 67 -8 104q-7 31 -51 31h-8l21 56l57 -1h138l58 2q-7 -107 -8 -165l-2 -210q-1 -81 5 -117q20 -124 130 -124q128 0 145 140
q3 26 4 102l2 184q1 58 -15 141q-5 25 -14 48l56 -1h71z" />
    <glyph glyph-name="V" unicode="V" horiz-adv-x="736" 
d="M732 682q-14 -22 -22 -37q-23 -45 -63 -145l-151 -377q-19 -48 -45 -133l-64 3h-85l-64 -3l-6 26l-18 60l-169 503q-18 45 -34 55q-10 6 -33 6h-8l21 56l57 -1h143l55 2q2 -28 2 -32q4 -42 21 -105l118 -436l141 425q17 51 17 98q0 25 -7 49l33 -1l155 1z" />
    <glyph glyph-name="W" unicode="W" horiz-adv-x="1130" 
d="M1107 682q-14 -28 -16 -37q-12 -30 -21 -62l-26 -90l-94 -360q-17 -65 -28 -143l-64 3h-80l-64 -3q-8 46 -21 89l-123 412l-37 -86l-115 -282q-25 -62 -42 -133l-64 3h-79l-64 -3v16q0 21 -7 74l-57 432q-9 69 -14 83q-16 45 -59 45h-8l21 56l57 -1h153l55 2
q-6 -43 -6 -82q0 -26 3 -71l26 -386l37 98l130 357l16 63l4 24l55 -2h94l63 2l3 -25q9 -72 23 -126l103 -387l19 93l55 294q7 37 7 65q0 38 -15 82l33 -1h92l49 1z" />
    <glyph glyph-name="X" unicode="X" horiz-adv-x="667" 
d="M667 15l-2 -15l-53 -1l-145 -2l-53 -3q-11 59 -50 135l-86 168l-64 -149q-32 -74 -32 -119q0 -5 2 -29l-57 2h-79l-50 -2l-3 15q7 9 26 32q42 52 87 143l88 177l-83 159q-8 16 -26 49q-3 6 -20 33q-20 32 -51 32h-8l21 56l57 -1h129l55 2q8 -53 42 -128l59 -130l49 112
q30 69 30 116q0 15 -2 29l57 -1h76l51 1l2 -15l-1 -2q-14 -16 -24 -29q-36 -48 -80 -132l-75 -145l113 -214q55 -105 100 -144z" />
    <glyph glyph-name="Y" unicode="Y" horiz-adv-x="676" 
d="M669 681q-4 -5 -25 -31q-51 -65 -85 -132l-86 -172l-40 -85l-1 -84q-1 -109 20 -177l-56 2h-124l-52 -2q13 78 13 190v74l-162 311q-22 43 -38 56q-11 9 -36 9h-8l20 56l57 -1h137l55 2q10 -66 38 -129l83 -187l72 163q30 68 30 129q0 12 -1 23l57 -1h79l51 1z" />
    <glyph glyph-name="Z" unicode="Z" horiz-adv-x="572" 
d="M572 131l-13 -49l-19 -86q-37 2 -46 1q-37 2 -136 3l-254 2l-102 -2l-5 52l-8 47q45 61 79 115l246 396h-49q-9 0 -20 1h-12q-140 0 -191 -64l-18 4l8 54l8 49l3 44q33 0 99.5 -1.5t99.5 -1.5h157q70 0 140 1l5 -45l8 -54q-56 -71 -79 -109l-182 -293q-30 -48 -30 -71
q0 -33 75 -33h76q53 0 98 18q22 9 44 30z" />
    <glyph glyph-name="bracketleft" unicode="[" horiz-adv-x="458" 
d="M371 -95l-11 -28l-11 -29q-3 0 -19 1q-50 3 -39 3h-168v857h92q8 0 51 1h25q12 0 58 3l11 -32l11 -25l-8 -12q-39 8 -66 8h-52l-3 -67q-3 -67 -3 -109q-1 -8 -1 -99v-193q0 -91 1 -99q0 -42 3 -109l3 -67h52q21 0 66 8z" />
    <glyph glyph-name="backslash" unicode="\" horiz-adv-x="285" 
d="M365 -43l-28 -48l-23 -50l-15 -1q-5 16 -20 59q-4 13 -44 101q-11 26 -45 98l-274 528l27 47l24 50l15 2q10 -30 21 -59q41 -109 88 -199z" />
    <glyph glyph-name="bracketright" unicode="]" horiz-adv-x="458" 
d="M335 -148h-168q4 0 -58 -4l-11 32l-11 25l8 12q45 -8 66 -8h52l3 67q3 67 3 109q1 8 1 99v193q0 91 -1 99q0 42 -3 109l-3 67h-52q-27 0 -66 -8l-8 12l11 28l11 29l58 -3h26l50 -1h92v-857z" />
    <glyph glyph-name="asciicircum" unicode="^" horiz-adv-x="597" 
d="M504 358h-113l-90 190l-95 -190h-113l167 324h85z" />
    <glyph glyph-name="underscore" unicode="_" 
d="M536 -135h-512v72h512v-72z" />
    <glyph glyph-name="grave" unicode="`" horiz-adv-x="520" 
d="M337 558l-24 -16l-19 -16l-73 56l-82 61l-64 43l10 14l27 -3l140 -5l20 -38l37 -59z" />
    <glyph glyph-name="a" unicode="a" horiz-adv-x="550" 
d="M529 54l-19 -52l-40 -1l-88 -4l-53 -5l-3 69l-43 -35q-54 -44 -116 -44q-64 0 -102.5 43t-38.5 108q0 116 118 141q20 4 101 17q31 5 40 9q19 9 19 32q0 70 -90 70q-71 0 -123 -48l-17 8l14 111q88 31 179 31q155 0 189 -90q10 -25 10 -94l1 -139l2 -62q2 -66 45 -66h6z
M309 189v3l-1 38q-60 -4 -82 -16q-32 -17 -32 -62q0 -28 14 -45q15 -20 42 -20q29 0 46 23q13 17 13 79z" />
    <glyph glyph-name="b" unicode="b" horiz-adv-x="616" 
d="M588 271q0 -85 -32 -152q-37 -78 -107 -109q-61 -27 -159 -27q-112 0 -220 30q13 63 13 177l1 366q0 66 -3 83q-9 52 -48 52h-8l20 50l50 1l105 3l59 3l-4 -59q-5 -74 -5 -109v-163l35 29q14 11 34 25q42 28 97 28q91 0 135 -72q37 -60 37 -156zM408 236q0 154 -83 154
q-48 0 -67 -48q-11 -27 -11 -93v-68q0 -58 8 -82q14 -44 60 -44q93 0 93 181z" />
    <glyph glyph-name="c" unicode="c" horiz-adv-x="490" 
d="M469 480l-12 -40l-11 -53l-5 -39l-22 -2q-43 76 -108 76q-54 0 -80 -52q-20 -39 -20 -99q0 -74 30 -121q36 -57 105 -57q47 0 97 36l18 -10l-25 -55l-17 -52q-10 -4 -36 -13q-42 -14 -101 -14q-117 0 -186 71.5t-69 189.5q0 125 81 197q78 70 204 70q34 0 59 -4
q44 -7 98 -29z" />
    <glyph glyph-name="d" unicode="d" horiz-adv-x="610" 
d="M554 2l-44 -1l-78 -3l-53 -3l-9 83l-40 -32q-46 -37 -79 -46q-22 -6 -51 -6q-94 0 -138 72q-37 60 -37 159q0 133 70.5 204.5t202.5 71.5q30 0 65 -4v66q0 70 -2 80q-9 48 -49 48h-8l21 50l50 1l105 3l59 3q-9 -113 -9 -168l-1 -370q0 -71 10 -143q5 -36 15 -65zM366 240
v66q0 60 -9 84q-16 42 -64 42q-89 0 -89 -171q0 -161 85 -161q77 0 77 140z" />
    <glyph glyph-name="e" unicode="e" horiz-adv-x="525" 
d="M497 307q0 -7 -2 -49l-13 -15l-44 1l-183 1l-45 -2q4 -74 45.5 -116.5t115.5 -42.5q56 0 102 35l18 -10l-24 -55l-18 -51q-72 -23 -153 -23q-122 0 -195.5 73t-73.5 195q0 117 67.5 191.5t183.5 74.5q100 0 159.5 -54t59.5 -153zM336 366q0 81 -63 81q-67 0 -67 -102v-30
h29l50 2q51 2 51 49z" />
    <glyph glyph-name="f" unicode="f" horiz-adv-x="378" 
d="M487 742l-10 -37l-12 -66l-6 -47l-22 -5q-22 32 -35 44q-32 30 -78 30q-85 0 -85 -96q0 -20 4 -46l5 -33l79 -1q32 0 67 8l8 -12l-14 -41l-12 -44q-48 5 -81 5h-39l-4 -80v-132q0 -128 20 -189l-56 2h-92l-51 -2l6 45q5 38 6 145l1 110q1 69 -2 83q-9 51 -49 51h-18
l21 54h41q0 112 65 182q85 91 227 91q24 0 34 -1q38 -4 82 -18z" />
    <glyph glyph-name="g" unicode="g" horiz-adv-x="567" 
d="M580 485l-18 -32l-16 -35l-44 2h-10q-7 -1 -11 -1h-10q16 -28 16 -64q0 -91 -77 -134q-61 -34 -160 -34q-34 0 -68 5q-20 -19 -20 -35q0 -41 121 -41h20l58 1q178 3 178 -142q0 -110 -100 -168q-81 -47 -200 -47q-84 0 -149 29q-84 37 -84 112q0 62 81 96l24 10l-22 8
q-62 23 -62 72q0 37 44 74l56 47q-86 46 -86 135t75 131q60 34 156 34q76 0 123 -19l94 2l47 2l35 3zM324 335q0 111 -61 111l-2 -1q-57 -2 -57 -86q0 -110 61 -110q59 0 59 86zM395 -82q0 47 -66 58q-47 8 -85 5l-26 -2q-16 -1 -33 -2q-20 -3 -31 -9q-35 -21 -35 -53
q0 -41 48 -62q36 -16 84 -16q50 0 90 16q54 22 54 65z" />
    <glyph glyph-name="h" unicode="h" horiz-adv-x="642" 
d="M585 0l-56 2h-92l-51 -2q13 78 13 190v100q0 42 -5 57q-13 40 -60 40q-84 0 -84 -122v-76q0 -131 19 -189l-56 2h-91l-52 -2q9 45 11 117l2 73l1 366q0 66 -3 83q-9 52 -48 52h-8l20 50l50 1l105 3l59 3l-4 -59q-5 -74 -5 -109v-164l34 30q60 53 136 53q147 0 146 -168
l-1 -142q-1 -125 20 -189z" />
    <glyph glyph-name="i" unicode="i" horiz-adv-x="327" 
d="M265 631q0 -58 -29 -75q-19 -11 -85 -11q-41 0 -59 13t-18 53q0 64 26 82q19 13 89 13q44 0 60 -12t16 -55v-8zM269 0l-56 2h-91l-52 -2q4 24 7 45q4 32 6 145l2 113q1 61 -3 83q-10 52 -49 52h-8l20 50l50 2l105 2l59 3l-4 -57q-5 -71 -5 -110v-139q0 -131 19 -189z" />
    <glyph glyph-name="j" unicode="j" horiz-adv-x="324" 
d="M266 631q0 -58 -29 -75q-19 -11 -85 -11q-41 0 -59 13t-18 53q0 64 26 82q19 13 89 13q44 0 60 -12t16 -55v-8zM260 495l-4 -57q-5 -74 -5 -110l1 -210q1 -124 -48 -191q-32 -43 -65 -71q-46 -38 -134 -86l-38 21l-36 17l3 19q96 37 128 137q13 41 18 100q2 29 4 126
l2 113q1 61 -3 83q-10 52 -49 52h-8l20 50l50 2l105 2z" />
    <glyph glyph-name="k" unicode="k" horiz-adv-x="627" 
d="M624 14l-4 -13h-60l-152 -9l-9 25q-13 37 -77 153q-20 37 -35 58q-13 -12 -37 -39v-26q0 -58 8 -116q3 -22 11 -47l-56 2h-91l-52 -2q9 45 11 117l2 73l1 366q0 66 -3 83q-9 52 -48 52h-8l20 50l50 1l105 3l59 3l-4 -59q-5 -74 -5 -109v-283l20 20l75 81q26 28 40 59
q6 13 7 34l28 -1l106 1l45 2l6 -16q-10 -8 -30 -22q-33 -27 -73 -65l-58 -54l9 -18q6 -12 17 -31q52 -89 100 -163q32 -49 38 -57q23 -32 44 -53z" />
    <glyph glyph-name="l" unicode="l" horiz-adv-x="327" 
d="M269 0l-56 2h-91l-52 -2q9 45 11 117l2 73l1 366q0 66 -3 83q-9 52 -48 52h-8l20 50l50 1l105 3l59 3l-4 -59q-5 -74 -5 -109v-391q0 -131 19 -189z" />
    <glyph glyph-name="m" unicode="m" horiz-adv-x="959" 
d="M901 0l-55 2h-92l-52 -2q3 11 6 45q6 61 7 145l1 100q0 37 -6 57q-13 40 -60 40q-39 0 -63 -30q-20 -20 -21 -92l-1 -87q-1 -110 20 -178l-56 2h-92l-51 -2q13 78 13 190v100q0 42 -5 57q-13 40 -60 40q-84 0 -84 -122v-76q0 -131 19 -189l-56 2h-91l-52 -2q4 24 7 45
q4 32 6 145l2 113q1 61 -3 83q-10 52 -49 52h-8l20 50l50 2l94 2l58 3l-3 -84l40 35q61 53 136 53q109 0 138 -90l43 37q62 53 136 53q100 0 132 -74q13 -30 13 -94v-142q0 -131 19 -189z" />
    <glyph glyph-name="n" unicode="n" horiz-adv-x="648" 
d="M592 0l-56 2h-92l-51 -2q12 80 12 190v96q0 43 -6 61q-13 40 -62 40q-88 0 -88 -122v-76q0 -128 20 -189l-56 2h-92l-51 -2l6 45q5 38 6 145l1 113q1 69 -2 83q-10 52 -49 52h-8l21 50l50 2l93 2l58 3l-3 -83l41 34q64 53 139 53q151 0 150 -168l-1 -142q-1 -125 20 -189
z" />
    <glyph glyph-name="o" unicode="o" horiz-adv-x="597" 
d="M570 265q0 -133 -74.5 -206.5t-207.5 -73.5q-125 0 -193 63t-68 187q0 133 75 204t209 71q259 0 259 -245zM392 239q0 205 -92 205h-4q-60 0 -80 -70q-11 -38 -11 -119q0 -83 11 -126q20 -79 81 -79q62 0 83 69q12 39 12 120z" />
    <glyph glyph-name="p" unicode="p" horiz-adv-x="616" 
d="M588 274q0 -99 -44 -171q-69 -113 -247 -113q-22 0 -48 2l1 -42q2 -71 8 -135q2 -18 11 -47l-56 2h-91l-52 -2q9 45 11 117l2 73l1 345q0 66 -3 83q-9 52 -48 52h-8l20 50l50 2l94 2l58 3l-3 -83l39 33q64 54 133 54q89 0 134 -71q38 -60 38 -154zM408 240q0 152 -83 152
q-48 0 -67 -48q-11 -27 -11 -92v-66q0 -59 8 -82q15 -43 60 -43q93 0 93 179z" />
    <glyph glyph-name="q" unicode="q" horiz-adv-x="609" 
d="M552 -232l-56 2h-92l-51 -2l6 45q5 38 6 145l1 115l-33 -27q-64 -52 -130 -52q-94 0 -138 72q-37 60 -37 159q0 135 72.5 206.5t208.5 71.5q76 0 135 -17q12 -2 14 -2q15 0 24 22q2 5 6 13l51 2q-6 -66 -6 -173l-1 -391q0 -128 20 -189zM369 240v66q0 60 -9 84
q-16 42 -64 42q-89 0 -89 -171q0 -161 85 -161q77 0 77 140z" />
    <glyph glyph-name="r" unicode="r" horiz-adv-x="425" 
d="M436 500l-10 -57l-11 -68l-6 -53l-20 -3q-29 43 -67 43q-72 0 -72 -105v-68l-1 -15q-1 -15 -1 -34q0 -75 21 -140l-56 2h-91l-52 -2q4 24 7 45q4 32 6 145l2 113q1 61 -3 83q-10 52 -49 52h-8l20 50l50 2l83 2l58 3l-3 -112l38 51q56 75 120 75q21 0 45 -9z" />
    <glyph glyph-name="s" unicode="s" horiz-adv-x="451" 
d="M417 177q0 -94 -75 -147q-67 -46 -165 -46q-82 0 -149 25l9 37l8 46l4 33l19 3q40 -62 110 -62q76 0 76 52q0 25 -24 40q-11 7 -47 20l-30 11q-60 22 -87 49q-34 35 -34 92q0 89 69 136q60 42 153 42q67 0 138 -21l-6 -32l-7 -42l-4 -34l-17 -3q-42 52 -106 52
q-62 0 -62 -45q0 -18 11 -26q13 -13 73 -35q68 -25 89 -39q54 -36 54 -106z" />
    <glyph glyph-name="t" unicode="t" horiz-adv-x="398" 
d="M399 481l-14 -41l-12 -44q-48 5 -81 5h-40l-3 -80l-1 -116q0 -57 8 -81q15 -43 61 -43q30 0 57 17l17 -9l-12 -36l-14 -48q-88 -24 -133 -24q-117 0 -142 94q-8 30 -8 94v131q0 71 -2 82q-9 52 -48 52h-18l20 54h55l-1 17q-1 25 -5 59l47 15l79 34l40 22l15 -15
q-10 -53 -12 -134l72 -1q32 0 66 8z" />
    <glyph glyph-name="u" unicode="u" horiz-adv-x="644" 
d="M620 54l-21 -50l-41 -2l-90 -3l-58 -3l-8 85l-42 -35q-65 -54 -136 -54q-148 0 -146 169l2 142q1 64 -10 142q-4 26 -13 46l58 -1l92 1l51 2q-2 -13 -5 -46q-6 -70 -7 -145l-1 -105q0 -35 5 -52q13 -40 61 -40q84 0 84 122v76q0 77 -9 142q-2 17 -13 46l58 -1l92 1l51 2
q-13 -78 -13 -191v-113q0 -72 2 -83q9 -52 48 -52h9z" />
    <glyph glyph-name="v" unicode="v" horiz-adv-x="542" 
d="M552 480q-49 -67 -96 -176l-93 -213q-19 -43 -29 -101l-38 2h-77l-43 -2q-8 53 -21 96l-69 221q-25 79 -45 110q-14 21 -42 21h-8l20 50l50 2l105 2l56 3q1 -7 2 -27q3 -44 26 -133l47 -185l19 57l50 128q30 77 30 125q0 11 -4 31h51l64 1l39 3z" />
    <glyph glyph-name="w" unicode="w" horiz-adv-x="864" 
d="M867 480q-19 -28 -36 -65q-12 -26 -37 -102l-73 -220q-17 -52 -22 -100l-44 3l-134 -2q-7 48 -24 97l-56 161l-14 47l-17 -44l-67 -164q-21 -51 -30 -97l-38 1l-97 1l-43 -3q-7 52 -16 97l-44 211q-14 68 -20 84q-19 53 -56 53h-8l21 50l50 2l105 2l55 3q0 -5 1 -32
q2 -59 14 -135l31 -197l23 58l62 159q31 80 43 147l38 -1l66 -1l43 3q1 -16 3 -27q8 -47 33 -125l49 -152l16 -60l15 56l41 143q16 56 16 102q0 23 -9 58h51l65 1l38 3z" />
    <glyph glyph-name="x" unicode="x" horiz-adv-x="543" 
d="M539 14l-5 -13h-60l-150 -9l-10 25l-11 26l-19 42l-38 77l-12 27l-13 -25l-40 -75q-24 -45 -24 -76v-13h-50l-60 -1l-38 -2l-6 14q48 51 76 94l95 145l-14 24l-59 97q-41 67 -77 67h-9l21 50l50 2l105 2l56 3q2 -18 2 -20q5 -29 19 -56l36 -72l10 -22l40 77q24 46 24 78
v11h51l59 1l38 3l7 -15q-6 -5 -16 -16q-40 -44 -61 -77l-64 -100l-19 -27l28 -48l55 -88q50 -80 83 -110z" />
    <glyph glyph-name="y" unicode="y" horiz-adv-x="542" 
d="M552 480q-44 -51 -93 -173l-153 -383q-28 -70 -28 -118q0 -14 4 -38h-51l-68 -1l-38 -3l-7 15q39 42 94 174l20 48h-52q-7 51 -22 96l-69 206q-25 74 -45 110q-14 25 -45 25h-8l20 50l50 2l105 2l56 3q0 -6 2 -29q4 -47 28 -132l37 -132l12 -49l19 54l48 129
q28 75 28 123q0 12 -4 32h51l64 1l39 3z" />
    <glyph glyph-name="z" unicode="z" horiz-adv-x="458" 
d="M449 109l-11 -31l-12 -42l-9 -36l-36 1h-62h-34l-47 1h-81q-77 0 -141 -3l-4 42l-8 44q32 38 49 66q8 10 30 39l101 147q31 46 48 72h-38q-98 0 -140 -39l-16 9l9 59l6 53h27q6 0 12 -1h7h18l38 -1h158q59 0 111 3l4 -39l9 -47l-15 -21q-15 -19 -58 -79l-83 -122
q-35 -51 -35 -70q0 -26 63 -26q78 0 124 31z" />
    <glyph glyph-name="braceleft" unicode="{" horiz-adv-x="448" 
d="M354 -159q-41 -4 -53 -4q-91 0 -134 69q-23 37 -23 110v20l2 103q2 109 -83 109h-16l1 28l-1 28q7 -1 16 -1q83 0 83 109v10l-2 113q-3 179 157 179q13 0 53 -4l-3 -23l-2 -29q-20 4 -28 4q-24 0 -45 -21q-23 -29 -25 -105l-3 -112q-2 -60 -20 -90q-20 -33 -74 -53l1 -11
q53 -20 72 -51.5t21 -90.5l3 -113q1 -46 4 -60q5 -26 23 -45.5t43 -19.5q9 0 17 2q3 0 11 2v-23z" />
    <glyph glyph-name="bar" unicode="|" horiz-adv-x="229" 
d="M178 -250h-127v1000h127v-1000z" />
    <glyph glyph-name="braceright" unicode="}" horiz-adv-x="448" 
d="M401 248h-16q-49 0 -68 -32q-15 -24 -15 -77v-9l2 -114q1 -82 -36 -128q-41 -51 -121 -51q-13 0 -52 4l2 23l2 30q10 -2 11 -2q8 -2 17 -2q44 0 63 52q5 15 7 73l3 113q2 58 22 90t72 52v12q-53 19 -74 53q-18 30 -20 89l-3 112q-1 47 -4 60q-5 27 -23 46.5t-43 19.5
q-3 0 -17 -2q-4 -2 -11 -2v22l-4 30q40 4 52 4q106 0 144 -87q13 -30 13 -92v-19l-2 -104q-2 -109 83 -109q9 0 16 1l-1 -28z" />
    <glyph glyph-name="asciitilde" unicode="~" 
d="M489 285q-56 -67 -124 -66q-39 0 -84 24l-25 13q-33 17 -57 17t-41 -12q-11 -8 -43 -44l-44 82q53 76 124 76q23 0 83 -25l29 -12q46 -19 59 -19q38 0 82 50z" />
    <glyph glyph-name="nonbreakingspace" unicode="&#xa0;" horiz-adv-x="327" 
 />
    <glyph glyph-name="exclamdown" unicode="&#xa1;" horiz-adv-x="367" 
d="M254 437q0 -61 -17 -80.5t-77 -19.5q-38 0 -50 15.5t-12 54.5v5q1 3 1 4q1 56 14 71q16 19 79 19q38 0 50 -15t12 -54zM280 -200h-40l-162 -4q10 56 16 104l28 228q0 10 6 69q4 39 5 70h44l45 1v-22q0 -9 4 -49l7 -70l28 -233q2 -20 6.5 -46.5t12.5 -47.5z" />
    <glyph glyph-name="cent" unicode="&#xa2;" 
d="M498 480l-11 -40l-11 -53l-6 -39l-22 -2q-23 43 -57 63v-315q34 0 82 35l17 -10l-24 -55l-18 -52q-30 -12 -57 -18v-40q0 -32 5 -83l-43 -22l-42 -24l-12 4q12 73 16 157q-8 -1 -19 -1q-108 0 -175 77q-65 73 -65 182q0 118 71 189t190 79v9q0 49 -2 96l39 18l42 21
l13 -4q-9 -59 -14 -143q50 -6 103 -29zM318 106v313q-78 -18 -78 -149q0 -67 26 -115q15 -28 52 -49z" />
    <glyph glyph-name="sterling" unicode="&#xa3;" 
d="M565 167l-26 -44l-39 -79l-23 -51q-49 7 -93 9q-2 0 -86 2l-88 2q-98 2 -194 -8l23 51l17 44q53 11 89 38q46 34 46 81q0 24 -14 61q-5 14 -27 62h-84q-21 0 -66 -4l19 63l7 32q23 -2 54 -2h33q-27 59 -27 99q0 98 87 148q71 40 177 40q91 0 165 -32l-14 -42l-16 -56
l-7 -38l-25 -3q-40 73 -106 73q-36 0 -57.5 -22t-21.5 -58t36 -109h47q86 0 128 9l12 -12l-13 -26l-18 -39l-10 -24q-35 3 -86 3h-26l4 -15q11 -41 11 -55q0 -42 -51 -84l-27 -22l-20 -18l25 1h72q133 0 195 41z" />
    <glyph glyph-name="yen" unicode="&#xa5;" 
d="M622 681q-7 -8 -26 -30q-42 -51 -83 -133l-98 -196h26q96 0 152 14l7 -11l-13 -45l-12 -46q-66 9 -139 9h-50v-64q0 -120 20 -179l-56 2h-125l-51 -2l6 45q4 29 6 145l1 53h-52q-103 0 -160 -14l-8 11l14 45l12 45q65 -8 139 -8h25l-11 21l-122 232q-20 39 -27 46
q-18 19 -47 19h-8l21 56l57 -1h137l55 2q8 -61 38 -129l82 -187l73 163q30 67 30 129q0 4 -2 23l57 -1h80l50 1z" />
    <glyph glyph-name="brokenbar" unicode="&#xa6;" horiz-adv-x="206" 
d="M165 296h-101v305h101v-305zM165 -103h-101v305h101v-305z" />
    <glyph glyph-name="section" unicode="&#xa7;" horiz-adv-x="519" 
d="M215 -178q-89 0 -179 45q16 65 28 160l23 2q46 -114 137 -117q82 -3 93 64q8 49 -60 107q-25 22 -86 74q-76 66 -104 118q-35 62 -35 152q0 108 74 197q79 94 185 94q92 0 167 -48q-19 -61 -36 -144l-22 -1q-12 43 -48.5 71.5t-80.5 28.5q-66 0 -67 -54q0 -29 83 -107
q118 -111 142 -142q62 -82 62 -184q0 -125 -74 -217q-80 -99 -202 -99zM418 93q4 72 -34 135q-27 44 -93 106q-87 81 -116 124q-34 50 -35 108q-35 -46 -37 -107q-2 -75 35 -135q28 -44 98 -104q77 -66 103 -99q50 -64 49 -131q26 37 30 103z" />
    <glyph glyph-name="dieresis" unicode="&#xa8;" horiz-adv-x="525" 
d="M244 636q0 -52 -17.5 -65.5t-71.5 -13.5q-35 0 -47 13t-12 48q0 55 17 71.5t72 16.5q36 0 47.5 -12.5t11.5 -49.5v-8zM456 636q0 -52 -17.5 -65.5t-71.5 -13.5q-36 0 -47.5 12.5t-11.5 48.5q0 55 17 71.5t72 16.5q36 0 47.5 -12.5t11.5 -49.5v-8z" />
    <glyph glyph-name="copyright" unicode="&#xa9;" horiz-adv-x="708" 
d="M702 343q0 -149 -98.5 -252.5t-247.5 -103.5q-146 0 -245 103t-100 249t99 249t246 103q144 0 245 -101.5t101 -246.5zM627 335q0 119 -76.5 203t-194.5 84q-116 0 -193.5 -83t-77.5 -200q0 -116 78 -199.5t193 -83.5q114 0 192.5 82t78.5 197zM500 519l-7 -27l-7 -38
l-3 -22l-12 -2q-37 62 -87 62q-48 0 -72 -47q-18 -36 -18 -89q0 -58 25 -97q29 -46 84 -46q41 0 77 32l11 -6l-7 -19l-8 -25l-5 -21q-51 -19 -108 -19q-84 0 -132.5 53t-48.5 138q0 91 61 144q57 50 150 50q50 0 107 -21z" />
    <glyph glyph-name="ordfeminine" unicode="&#xaa;" horiz-adv-x="319" 
d="M313 438l-11 -31h-24l-53 -3l-31 -3l-3 42l-26 -21q-33 -27 -69 -27q-38 0 -61 26t-23 65q0 40 25 63q20 18 106 31q35 5 35 25q0 42 -54 42q-44 0 -73 -29l-11 5l5 32l4 35q49 19 107 19q95 0 113 -53q7 -21 7 -58v-83l1 -38q1 -39 28 -39h8zM292 339l-18 -65
q-49 7 -100 7h-30q-73 0 -116 -11l-5 8l10 32l9 33q49 -6 100 -6h30q77 0 115 10zM180 519v25q-67 -4 -67 -47q0 -39 32 -39q18 0 28 14q7 10 7 47z" />
    <glyph glyph-name="guillemotleft" unicode="&#xab;" horiz-adv-x="573" 
d="M517 101l-27 -19l-28 -22l-24 26l-126 112q-35 31 -62 49v41q24 17 62 50l126 111l24 27l28 -22l27 -19l-28 -31l-98 -134l98 -138zM321 101l-27 -19l-28 -22l-24 26l-126 112q-28 25 -62 49v41q23 16 62 50l126 111l24 27l28 -22l27 -19l-27 -31l-99 -134l99 -138z" />
    <glyph glyph-name="logicalnot" unicode="&#xac;" 
d="M546 35h-101v182h-431v102h532v-284z" />
    <glyph glyph-name="minus" unicode="&#xad;" 
d="M547 240h-534v101h534v-101z" />
    <glyph glyph-name="minus" unicode="&#x2212;" 
d="M547 240h-534v101h534v-101z" />
    <glyph glyph-name="registered" unicode="&#xae;" horiz-adv-x="722" 
d="M720 343q0 -149 -98.5 -252.5t-247.5 -103.5q-146 0 -245.5 103t-99.5 249q0 147 100 249.5t246 102.5q144 0 244.5 -101.5t100.5 -246.5zM655 335q0 123 -79.5 209.5t-201.5 86.5q-120 0 -200 -85.5t-80 -206.5q0 -120 81 -206.5t200 -86.5q118 0 199 85t81 204z
M569 185l-4 -7h-39l-50 -1l-24 -1q-6 13 -28 54l-25 47q-13 24 -30 52q-7 12 -22 13l5 17l3 15h4q67 0 67 61q0 63 -67 63q-4 0 -23 -2l-1 -47l-1 -174q0 -62 10 -97l-24 1h-57l-23 -1q2 9 3 23q3 20 3 74l1 163q0 59 -12 67q-6 3 -17 3h-4l10 27l31 -1l55 1h114q15 0 38 -6
q54 -14 54 -74q0 -59 -67 -91l48 -80q35 -58 55 -83q5 -6 17 -16z" />
    <glyph glyph-name="macron" unicode="&#xaf;" horiz-adv-x="478" 
d="M374 584h-270v97h270v-97z" />
    <glyph glyph-name="macron" unicode="&#x2c9;" horiz-adv-x="478" 
d="M374 584h-270v97h270v-97z" />
    <glyph glyph-name="degree" unicode="&#xb0;" horiz-adv-x="355" 
d="M316 565q0 -58 -40.5 -98.5t-98.5 -40.5t-98 40.5t-40 98.5t40 99t98 41q59 0 99 -40.5t40 -99.5zM250 565q0 31 -20.5 52t-51.5 21q-30 0 -51.5 -21.5t-21.5 -51.5q0 -31 21 -51.5t52 -20.5q30 0 51 21t21 51z" />
    <glyph glyph-name="plusminus" unicode="&#xb1;" 
d="M513 367h-181v-167h-102v167h-183v102h183v166h102v-166h181v-102zM513 71h-466v101h466v-101z" />
    <glyph glyph-name="acute" unicode="&#xb4;" horiz-adv-x="520" 
d="M492 686l-64 -43l-154 -117l-20 16l-24 16l28 37l37 59l20 38l46 2l94 3l27 3z" />
    <glyph glyph-name="paragraph" unicode="&#xb6;" horiz-adv-x="670" 
d="M651 688l-15 -17l-22 -28l-16 -22q-22 7 -44 7h-36l-3 -38q0 -10 -2 -61l-2 -60l-1 -422q0 -155 17 -236l-38 -3l-86 -10q2 15 5 55q1 9 4 76q5 97 5 127l4 572h-67q-2 -16 -3 -39q0 -2 -2 -60l-2 -61l-1 -421q0 -156 17 -236l-38 -3l-44 -6l-42 -5q7 76 9 131l8 208
q-77 6 -130 40q-126 81 -126 230q0 66 31 126.5t84 99.5q60 44 154 57q52 7 166 7h105q39 0 102 9z" />
    <glyph glyph-name="periodcentered" unicode="&#xb7;" horiz-adv-x="277" 
d="M216 293q0 -56 -18.5 -73t-74.5 -17q-38 0 -50 15t-12 54q0 61 16.5 80t76.5 19q39 0 50.5 -14.5t11.5 -54.5v-9z" />
    <glyph glyph-name="periodcentered" unicode="&#x2219;" horiz-adv-x="277" 
d="M216 293q0 -56 -18.5 -73t-74.5 -17q-38 0 -50 15t-12 54q0 61 16.5 80t76.5 19q39 0 50.5 -14.5t11.5 -54.5v-9z" />
    <glyph glyph-name="cedilla" unicode="&#xb8;" horiz-adv-x="478" 
d="M320 -137q0 -53 -41 -85q-37 -29 -92 -29h-11l1 23v25q69 3 69 52q0 41 -42 41q-11 0 -25 -6l-9 2q-12 22 -12 34q1 17 69 56q93 -34 93 -113z" />
    <glyph glyph-name="ordmasculine" unicode="&#xba;" horiz-adv-x="352" 
d="M304 565q0 -80 -44.5 -124t-124.5 -44q-156 0 -156 150q0 80 45 122.5t125 42.5q155 0 155 -147zM277 339l-18 -65q-49 7 -100 7h-30q-73 0 -116 -11l-5 8l10 32l9 33q49 -6 100 -6h29q78 0 116 10zM197 549q0 124 -55 124l-2 -1q-36 -1 -48 -42q-7 -23 -7 -71
q0 -123 55 -123q57 0 57 113z" />
    <glyph glyph-name="guillemotright" unicode="&#xbb;" horiz-adv-x="573" 
d="M519 247q-25 -16 -62 -49l-126 -112l-24 -26l-28 22l-27 19l27 31l99 133l-99 139l-27 31l27 19l28 22l24 -27l126 -111q14 -13 62 -50v-41zM323 247q-27 -18 -62 -49l-126 -112l-24 -26l-28 22l-27 19l28 31l98 133l-98 139l-28 31l27 19l28 22l24 -27l126 -111
q38 -33 62 -50v-41z" />
    <glyph glyph-name="questiondown" unicode="&#xbf;" horiz-adv-x="453" 
d="M362 437q0 -61 -17 -80.5t-76 -19.5q-38 0 -50 15.5t-12 54.5v9q0 56 18 73t75 17q38 0 50 -15t12 -54zM400 -189q-100 -40 -184 -40q-85 0 -136 41q-55 44 -55 127q0 65 35.5 113t97.5 69q23 8 64 13l7 29l9 39l11 66l39 -2l34 2l5 -29l5 -34q5 -36 26 -133q-28 2 -31 2
q-138 0 -138 -109q0 -40 24.5 -67.5t63.5 -27.5q57 0 93 60l22 -7l1 -29l3 -48z" />
    <glyph glyph-name="Agrave" unicode="&#xc0;" horiz-adv-x="736" 
d="M435 755l-19 -21l-16 -19l-177 78l-73 27l7 16l27 3l137 28l29 -32l50 -49zM740 0l-55 2h-129l-74 -2q-1 66 -22 136l-22 73l-75 2h-88l-76 -2l-23 -75q-13 -42 -13 -84q0 -25 8 -50l-34 2h-97l-52 -2l-4 11l4 7l18 33q5 12 26 58q8 16 28 62l159 403q27 68 41 126l53 2
l115 10l60 9q11 -57 27 -103l149 -441q34 -102 76 -177zM414 300l-85 291l-99 -291l58 -2h57z" />
    <glyph glyph-name="Aacute" unicode="&#xc1;" horiz-adv-x="736" 
d="M590 820l-73 -27l-176 -78l-16 19l-19 21l35 31l50 49l28 32l45 -9l92 -19l27 -3zM740 0l-55 2h-129l-74 -2q-1 66 -22 136l-22 73l-75 2h-88l-76 -2l-23 -75q-13 -42 -13 -84q0 -25 8 -50l-34 2h-97l-52 -2l-4 11l4 7l18 33q5 12 26 58q8 16 28 62l159 403q27 68 41 126
l53 2l115 10l60 9q11 -57 27 -103l149 -441q34 -102 76 -177zM414 300l-85 291l-99 -291l58 -2h57z" />
    <glyph glyph-name="Acircumflex" unicode="&#xc2;" horiz-adv-x="736" 
d="M571 755l-19 -21l-16 -19l-160 88l-76 -39l-86 -49l-16 19l-19 21l35 31l50 49l29 32l84 -4l80 4l29 -32l50 -49zM740 0l-55 2h-129l-74 -2q-1 66 -22 136l-22 73l-75 2h-88l-76 -2l-23 -75q-13 -42 -13 -84q0 -25 8 -50l-34 2h-97l-52 -2l-4 11l4 7l18 33q5 12 26 58
q8 16 28 62l159 403q27 68 41 126l53 2l115 10l60 9q11 -57 27 -103l149 -441q34 -102 76 -177zM414 300l-85 291l-99 -291l58 -2h57z" />
    <glyph glyph-name="Atilde" unicode="&#xc3;" horiz-adv-x="736" 
d="M561 819q-61 -90 -122 -90q-21 0 -55 13l-34 13q-31 12 -56 12q-31 0 -60 -29l-9 -9l-35 34q32 42 51 58q34 29 70 29q18 0 55 -13l34 -12q37 -13 56 -13q35 0 61 29l8 9zM740 0l-55 2h-129l-74 -2q-1 66 -22 136l-22 73l-75 2h-88l-76 -2l-23 -75q-13 -42 -13 -84
q0 -25 8 -50l-34 2h-97l-52 -2l-4 11l4 7l18 33q5 12 26 58q8 16 28 62l159 403q27 68 41 126l53 2l115 10l60 9q11 -57 27 -103l149 -441q34 -102 76 -177zM414 300l-85 291l-99 -291l58 -2h57z" />
    <glyph glyph-name="Adieresis" unicode="&#xc4;" horiz-adv-x="736" 
d="M554 806q0 -49 -22 -62q-14 -8 -67 -8q-34 0 -46.5 10.5t-12.5 43.5q0 52 19 66q15 11 70 11q35 0 47 -10t12 -44v-7zM342 806q0 -47 -21 -60q-16 -10 -68 -10q-34 0 -46.5 10.5t-12.5 43.5q0 52 19 66q15 11 70 11q35 0 47 -10t12 -44v-7zM740 0l-55 2h-129l-74 -2
q-1 66 -22 136l-22 73l-75 2h-88l-76 -2l-23 -75q-13 -42 -13 -84q0 -25 8 -50l-34 2h-97l-52 -2l-4 11l4 7l18 33q5 12 26 58q8 16 28 62l159 403q27 68 41 126l53 2l115 10l60 9q11 -57 27 -103l149 -441q34 -102 76 -177zM414 300l-85 291l-99 -291l58 -2h57z" />
    <glyph glyph-name="Aring" unicode="&#xc5;" horiz-adv-x="735" 
d="M739 0l-54 2h-130l-74 -2q-1 66 -22 136l-22 73l-74 2h-89l-75 -2l-24 -75q-13 -41 -13 -84q0 -21 8 -50l-34 2h-97l-51 -2l-4 11q23 46 47 98q8 16 28 62l159 403q26 66 42 126l24 2q-25 30 -25 61q0 44 34 73q32 26 77 26q42 0 70.5 -25t28.5 -66q0 -28 -18 -56l36 6
q11 -57 27 -103l149 -441q34 -102 76 -177zM411 769q0 55 -45 55q-49 0 -49 -61q0 -54 46 -54q48 0 48 60zM413 300l-84 291l-100 -291l58 -2h58z" />
    <glyph glyph-name="AE" unicode="&#xc6;" horiz-adv-x="981" 
d="M959 141l-12 -53l-9 -53l-4 -39l-39 3l-450 1q12 80 12 190v87l-134 1l-72 -2l-69 -143q-27 -56 -27 -102q0 -4 2 -31l-34 2h-105l-51 -2l-4 11q1 2 15 22q41 61 70 111l203 358q33 58 33 91q0 47 -54 47h-11l21 56l108 -1l339 1q154 0 233 2l-12 -39l-15 -61l-6 -35
l-21 -2q-22 32 -48 41q-41 14 -98 14q-7 0 -59 -2l-4 -95v-115h112q35 0 107 6l-2 -25l-2 -45l3 -34q-99 6 -140 6q-3 0 -79 -2v-84q0 -15 2 -48q3 -48 18 -65q22 -24 100 -24q103 0 160 58zM458 363v170q0 23 -3 95l-21 2l-27 -50l-113 -218l51 -1h42z" />
    <glyph glyph-name="Ccedilla" unicode="&#xc7;" horiz-adv-x="707" 
d="M674 678l-14 -51l-15 -73l-6 -42l-25 -5q-72 119 -173 119q-96 0 -143 -86q-37 -67 -37 -173q0 -113 51 -189q58 -88 166 -88q80 0 156 62l22 -11l-15 -36l-16 -49l-11 -40q-102 -36 -216 -36q-167 0 -264 99.5t-97 266.5q0 178 125 280q115 93 298 93q94 0 214 -41z
M502 -137q0 -53 -43 -85q-39 -29 -94 -29h-12l2 48q71 3 71 52q0 18 -12.5 29.5t-30.5 11.5q-12 0 -27 -6l-9 2q-13 21 -13 34q0 17 73 56q95 -34 95 -113z" />
    <glyph glyph-name="Egrave" unicode="&#xc8;" horiz-adv-x="622" 
d="M401 755l-19 -21l-16 -19l-177 78l-73 27l7 16l27 3l137 28l29 -32l50 -49zM600 141l-12 -53l-9 -53l-4 -39l-39 3l-450 1q4 21 6 45q5 53 6 145l2 315q0 70 -3 87q-10 48 -56 48h-8l21 56l135 -1l322 2q1 0 8 1h13h29l-12 -39l-15 -61l-6 -35l-21 -2q-22 32 -48 41
q-41 14 -98 14q-7 0 -59 -2l-3 -95l-1 -89h112q35 0 107 6l-2 -25l-2 -45l3 -34q-99 6 -140 6q-3 0 -79 -2v-110q0 -15 2 -48q3 -48 18 -65q22 -24 100 -24q103 0 160 58z" />
    <glyph glyph-name="Eacute" unicode="&#xc9;" horiz-adv-x="622" 
d="M525 820l-73 -27l-176 -78l-16 19l-19 21l35 31l50 49l28 32l45 -9l92 -19l27 -3zM600 141l-12 -53l-9 -53l-4 -39l-39 3l-450 1q4 21 6 45q5 53 6 145l2 315q0 70 -3 87q-10 48 -56 48h-8l21 56l135 -1l322 2q1 0 8 1h13h29l-12 -39l-15 -61l-6 -35l-21 -2
q-22 32 -48 41q-41 14 -98 14q-7 0 -59 -2l-3 -95l-1 -89h112q35 0 107 6l-2 -25l-2 -45l3 -34q-99 6 -140 6q-3 0 -79 -2v-110q0 -15 2 -48q3 -48 18 -65q22 -24 100 -24q103 0 160 58z" />
    <glyph glyph-name="Ecircumflex" unicode="&#xca;" horiz-adv-x="622" 
d="M532 755l-19 -21l-16 -19l-160 88l-76 -39l-86 -49l-16 19l-19 21l35 31l50 49l29 32l84 -4l80 4l29 -32l50 -49zM600 141l-12 -53l-9 -53l-4 -39l-39 3l-450 1q4 21 6 45q5 53 6 145l2 315q0 70 -3 87q-10 48 -56 48h-8l21 56l135 -1l322 2q1 0 8 1h13h29l-12 -39
l-15 -61l-6 -35l-21 -2q-22 32 -48 41q-41 14 -98 14q-7 0 -59 -2l-3 -95l-1 -89h112q35 0 107 6l-2 -25l-2 -45l3 -34q-99 6 -140 6q-3 0 -79 -2v-110q0 -15 2 -48q3 -48 18 -65q22 -24 100 -24q103 0 160 58z" />
    <glyph glyph-name="Edieresis" unicode="&#xcb;" horiz-adv-x="622" 
d="M503 806q0 -49 -22 -62q-14 -8 -67 -8q-34 0 -47 10.5t-13 43.5q0 52 20 66q15 11 70 11q35 0 47 -10t12 -44v-7zM291 806q0 -47 -21 -60q-16 -10 -68 -10q-34 0 -47 10.5t-13 43.5q0 52 20 66q15 11 70 11q35 0 47 -10t12 -44v-7zM600 141l-12 -53l-9 -53l-4 -39l-39 3
l-450 1q4 21 6 45q5 53 6 145l2 315q0 70 -3 87q-10 48 -56 48h-8l21 56l135 -1l322 2q1 0 8 1h13h29l-12 -39l-15 -61l-6 -35l-21 -2q-22 32 -48 41q-41 14 -98 14q-7 0 -59 -2l-3 -95l-1 -89h112q35 0 107 6l-2 -25l-2 -45l3 -34q-99 6 -140 6q-3 0 -79 -2v-110
q0 -15 2 -48q3 -48 18 -65q22 -24 100 -24q103 0 160 58z" />
    <glyph glyph-name="Igrave" unicode="&#xcc;" horiz-adv-x="394" 
d="M260 755l-20 -21l-15 -19l-177 78l-74 27l8 16l27 3l137 28l28 -32l50 -49zM318 0l-56 2h-125l-51 -2q4 21 6 45q5 53 6 145l2 315q0 70 -3 87q-10 48 -56 48h-8l21 56l57 -1h138l58 2q-8 -94 -8 -165l-1 -343q0 -128 20 -189z" />
    <glyph glyph-name="Iacute" unicode="&#xcd;" horiz-adv-x="394" 
d="M387 820l-73 -27l-176 -78l-16 19l-19 21l35 31l50 49l28 32l45 -9l92 -19l27 -3zM318 0l-56 2h-125l-51 -2q4 21 6 45q5 53 6 145l2 315q0 70 -3 87q-10 48 -56 48h-8l21 56l57 -1h138l58 2q-8 -94 -8 -165l-1 -343q0 -128 20 -189z" />
    <glyph glyph-name="Icircumflex" unicode="&#xce;" horiz-adv-x="394" 
d="M385 755l-19 -21l-16 -19l-159 88l-77 -39l-86 -49l-15 19l-20 21l36 31l50 49l28 32l84 -4l81 4l28 -32l50 -49zM318 0l-56 2h-125l-51 -2q4 21 6 45q5 53 6 145l2 315q0 70 -3 87q-10 48 -56 48h-8l21 56l57 -1h138l58 2q-8 -94 -8 -165l-1 -343q0 -128 20 -189z" />
    <glyph glyph-name="Idieresis" unicode="&#xcf;" horiz-adv-x="394" 
d="M382 806q0 -49 -22 -62q-14 -8 -67 -8q-34 0 -47 10.5t-13 43.5q0 52 20 66q15 11 70 11q35 0 47 -10t12 -44v-7zM170 806q0 -47 -21 -60q-16 -10 -68 -10q-34 0 -47 10.5t-13 43.5q0 52 20 66q15 11 70 11q35 0 47 -10t12 -44v-7zM318 0l-56 2h-125l-51 -2q4 21 6 45
q5 53 6 145l2 315q0 70 -3 87q-10 48 -56 48h-8l21 56l57 -1h138l58 2q-8 -94 -8 -165l-1 -343q0 -128 20 -189z" />
    <glyph glyph-name="Ntilde" unicode="&#xd1;" horiz-adv-x="829" 
d="M621 819q-61 -90 -122 -90q-21 0 -55 13l-34 13q-31 12 -56 12q-31 0 -60 -29l-9 -9l-35 34q36 44 52 58q33 29 70 29q17 0 54 -13l34 -12q37 -13 56 -13q35 0 61 29l8 9zM747 -5l-86 1l-84 -1q-45 70 -67 99l-290 379l1 -52l5 -232q1 -69 14 -141q4 -25 14 -48l-56 2
h-53l-52 -2q5 28 7 45q5 47 6 145l2 315q0 70 -3 87q-10 48 -56 48h-8l21 56l57 -1l138 1l62 2q44 -78 67 -110l230 -316l-1 71l-5 164q-3 86 -13 141q-4 23 -15 48l56 -1h54l52 1q-9 -40 -11 -117l-2 -72l-1 -316q0 -17 2 -61q3 -68 15 -135z" />
    <glyph glyph-name="Ograve" unicode="&#xd2;" horiz-adv-x="863" 
d="M505 769l-20 -21l-15 -20l-84 38l-93 41l-73 26l7 16l27 4l137 28l28 -33l50 -49zM826 361q0 -179 -116 -284q-112 -100 -293 -100q-173 0 -275 95q-105 97 -105 269q0 174 115 280q112 103 287 103q249 0 342 -176q45 -85 45 -187zM605 339q0 117 -30 190
q-43 106 -142 106q-175 0 -175 -278q0 -293 176 -293q171 0 171 275z" />
    <glyph glyph-name="Oacute" unicode="&#xd3;" horiz-adv-x="863" 
d="M646 834l-73 -27l-177 -79l-16 20l-19 21l35 30l50 49l29 33l136 -28l27 -3zM826 361q0 -179 -116 -284q-112 -100 -293 -100q-173 0 -275 95q-105 97 -105 269q0 174 115 280q112 103 287 103q249 0 342 -176q45 -85 45 -187zM605 339q0 117 -30 190q-43 106 -142 106
q-175 0 -175 -278q0 -293 176 -293q171 0 171 275z" />
    <glyph glyph-name="Ocircumflex" unicode="&#xd4;" horiz-adv-x="863" 
d="M629 766l-19 -22l-16 -19l-160 88l-76 -39l-86 -49l-16 19l-19 22l35 30l50 49l29 32l83 -3l81 3l29 -32l50 -49zM826 361q0 -179 -116 -284q-112 -100 -293 -100q-173 0 -275 95q-105 97 -105 269q0 174 115 280q112 103 287 103q249 0 342 -176q45 -85 45 -187z
M605 339q0 117 -30 190q-43 106 -142 106q-175 0 -175 -278q0 -293 176 -293q171 0 171 275z" />
    <glyph glyph-name="Otilde" unicode="&#xd5;" horiz-adv-x="863" 
d="M627 829q-61 -90 -122 -90q-21 0 -55 13l-34 13q-31 12 -56 12q-31 0 -60 -29l-9 -9l-35 34q32 42 51 58q34 29 70 29q18 0 55 -13l34 -12q37 -13 56 -13q35 0 61 29l8 9zM826 361q0 -179 -116 -284q-112 -100 -293 -100q-173 0 -275 95q-105 97 -105 269q0 174 115 280
q112 103 287 103q249 0 342 -176q45 -85 45 -187zM605 339q0 117 -30 190q-43 106 -142 106q-175 0 -175 -278q0 -293 176 -293q171 0 171 275z" />
    <glyph glyph-name="Odieresis" unicode="&#xd6;" horiz-adv-x="863" 
d="M628 810q0 -50 -22 -62q-14 -8 -67 -8q-34 0 -47 10t-13 43q0 51 20 66q16 12 69 12q36 0 48 -10t12 -45v-6zM416 810q0 -53 -25 -63q-18 -7 -64 -7q-34 0 -47 10t-13 43q0 50 20 66q17 12 69 12q36 0 48 -10t12 -45v-6zM826 361q0 -179 -116 -284q-112 -100 -293 -100
q-173 0 -275 95q-105 97 -105 269q0 174 115 280q112 103 287 103q249 0 342 -176q45 -85 45 -187zM605 342q0 114 -31 188q-43 105 -141 105q-175 0 -175 -278q0 -116 32 -190q44 -103 144 -103q171 0 171 278z" />
    <glyph glyph-name="multiply" unicode="&#xd7;" 
d="M498 146l-72 -73l-146 146l-146 -146l-72 73l146 145l-146 146l72 71l146 -145l146 145l72 -71l-145 -146z" />
    <glyph glyph-name="Oslash" unicode="&#xd8;" horiz-adv-x="863" 
d="M826 365q0 -181 -114 -286q-110 -102 -293 -102q-122 0 -204 43q-31 -38 -64 -86l-55 8l-51 5l-7 13q55 51 107 110q-108 108 -108 267q0 177 116 283q112 104 290 104q104 0 188 -36q42 55 79 107l52 -7l54 -5l8 -13q-55 -52 -119 -125q121 -106 121 -280zM547 579
q-43 56 -117 56q-172 0 -172 -280q0 -70 13 -131zM605 351q0 84 -19 147l-280 -361q45 -73 128 -73q171 0 171 287z" />
    <glyph glyph-name="Ugrave" unicode="&#xd9;" horiz-adv-x="808" 
d="M504 755l-19 -21l-16 -19l-177 78l-73 27l7 16l28 3l136 28l29 -32l50 -49zM732 696q-4 -25 -6 -44q-6 -58 -6 -145v-293q0 -124 -98 -186q-82 -52 -214 -52q-43 0 -88 6q-173 23 -208 144q-14 48 -14 131v60l2 188q1 67 -8 104q-7 31 -51 31h-8l21 56l57 -1h138l58 2
q-7 -107 -8 -165l-2 -210q-1 -81 5 -117q20 -124 130 -124q128 0 145 140q3 26 4 102l2 184q1 58 -15 141q-5 25 -14 48l56 -1h71z" />
    <glyph glyph-name="Uacute" unicode="&#xda;" horiz-adv-x="808" 
d="M615 820l-73 -27l-177 -78l-16 19l-19 21l35 31l50 49l29 32l136 -28l28 -3zM732 696q-4 -25 -6 -44q-6 -58 -6 -145v-293q0 -124 -98 -186q-82 -52 -214 -52q-43 0 -88 6q-173 23 -208 144q-14 48 -14 131v60l2 188q1 67 -8 104q-7 31 -51 31h-8l21 56l57 -1h138l58 2
q-7 -107 -8 -165l-2 -210q-1 -81 5 -117q20 -124 130 -124q128 0 145 140q3 26 4 102l2 184q1 58 -15 141q-5 25 -14 48l56 -1h71z" />
    <glyph glyph-name="Ucircumflex" unicode="&#xdb;" horiz-adv-x="808" 
d="M630 755l-19 -21l-16 -19l-160 88l-76 -39l-86 -49l-15 19l-20 21l36 31l49 49l29 32l84 -4l81 4l28 -32l50 -49zM732 696q-4 -25 -6 -44q-6 -58 -6 -145v-293q0 -124 -98 -186q-82 -52 -214 -52q-43 0 -88 6q-173 23 -208 144q-14 48 -14 131v60l2 188q1 67 -8 104
q-7 31 -51 31h-8l21 56l57 -1h138l58 2q-7 -107 -8 -165l-2 -210q-1 -81 5 -117q20 -124 130 -124q128 0 145 140q3 26 4 102l2 184q1 58 -15 141q-5 25 -14 48l56 -1h71z" />
    <glyph glyph-name="Udieresis" unicode="&#xdc;" horiz-adv-x="808" 
d="M614 806q0 -49 -22 -62q-14 -8 -67 -8q-34 0 -47 10.5t-13 43.5q0 52 20 66q15 11 70 11q35 0 47 -10t12 -44v-7zM402 806q0 -47 -21 -60q-16 -10 -68 -10q-34 0 -47 10.5t-13 43.5q0 52 20 66q15 11 70 11q35 0 47 -10t12 -44v-7zM732 696q-4 -25 -6 -44q-6 -58 -6 -145
v-293q0 -124 -98 -186q-82 -52 -214 -52q-43 0 -88 6q-173 23 -208 144q-14 48 -14 131v60l2 188q1 67 -8 104q-7 31 -51 31h-8l21 56l57 -1h138l58 2q-7 -107 -8 -165l-2 -210q-1 -81 5 -117q20 -124 130 -124q128 0 145 140q3 26 4 102l2 184q1 58 -15 141q-5 25 -14 48
l56 -1h71z" />
    <glyph glyph-name="germandbls" unicode="&#xdf;" horiz-adv-x="691" 
d="M657 171q0 -88 -68 -140q-61 -47 -152 -47q-83 0 -145 25l9 39l8 45l3 35l20 4q35 -69 99 -69q29 0 50.5 15.5t21.5 43.5q0 31 -32 55q-16 12 -59 34q-61 31 -86 57q-37 38 -37 94q0 79 58 129q55 49 135 49q7 0 41 -2q1 7 1 17q0 59 -39.5 94.5t-99.5 35.5
q-83 0 -114 -63q-9 -18 -12 -37q-7 -42 -7 -120l-1 -276q0 -128 20 -189l-56 2h-92l-51 -2q13 78 13 190v110q0 71 -2 82q-9 52 -48 52h-18l19 52l43 2v7q0 136 98 206q86 62 227 62q104 0 168 -50q71 -55 71 -156q0 -72 -47 -153l-16 -3q-32 66 -84 66q-25 0 -42 -14.5
t-17 -38.5q0 -38 73 -76l44 -23q103 -54 103 -144z" />
    <glyph glyph-name="agrave" unicode="&#xe0;" horiz-adv-x="550" 
d="M315 558l-24 -16l-19 -16l-73 56l-82 61l-64 43l10 14l27 -3l140 -5l20 -38l37 -59zM529 54l-19 -52l-40 -1l-88 -4l-53 -5l-3 69l-43 -35q-54 -44 -116 -44q-64 0 -102.5 43t-38.5 108q0 116 118 141q20 4 101 17q31 5 40 9q19 9 19 32q0 70 -90 70q-71 0 -123 -48
l-17 8l14 111q88 31 179 31q155 0 189 -90q10 -25 10 -94l1 -139l2 -62q2 -66 45 -66h6zM309 189v3l-1 38q-60 -4 -82 -16q-32 -17 -32 -62q0 -28 14 -45q15 -20 42 -20q29 0 46 23q13 17 13 79z" />
    <glyph glyph-name="aacute" unicode="&#xe1;" horiz-adv-x="550" 
d="M502 686l-64 -43l-154 -117l-20 16l-24 16l28 37l37 59l20 38l46 2l94 3l27 3zM529 54l-19 -52l-40 -1l-88 -4l-53 -5l-3 69l-43 -35q-54 -44 -116 -44q-64 0 -102.5 43t-38.5 108q0 116 118 141q20 4 101 17q31 5 40 9q19 9 19 32q0 70 -90 70q-71 0 -123 -48l-17 8
l14 111q88 31 179 31q155 0 189 -90q10 -25 10 -94l1 -139l2 -62q2 -66 45 -66h6zM309 189v3l-1 38q-60 -4 -82 -16q-32 -17 -32 -62q0 -28 14 -45q15 -20 42 -20q29 0 46 23q13 17 13 79z" />
    <glyph glyph-name="acircumflex" unicode="&#xe2;" horiz-adv-x="550" 
d="M445 558l-24 -16l-20 -16l-67 58l-69 55l-68 -55l-67 -58l-20 16l-24 16l28 37l37 59l21 38l45 2l86 3l54 3l23 -46l37 -59zM529 54l-19 -52l-40 -1l-88 -4l-53 -5l-3 69l-43 -35q-54 -44 -116 -44q-64 0 -102.5 43t-38.5 108q0 116 118 141q20 4 101 17q31 5 40 9
q19 9 19 32q0 70 -90 70q-71 0 -123 -48l-17 8l14 111q88 31 179 31q155 0 189 -90q10 -25 10 -94l1 -139l2 -62q2 -66 45 -66h6zM309 189v3l-1 38q-60 -4 -82 -16q-32 -17 -32 -62q0 -28 14 -45q15 -20 42 -20q29 0 46 23q13 17 13 79z" />
    <glyph glyph-name="atilde" unicode="&#xe3;" horiz-adv-x="550" 
d="M458 660q-20 -28 -38 -47q-42 -43 -80 -43q-20 0 -53 13l-33 13q-33 13 -54 13q-29 0 -59 -30l-8 -8l-34 34q35 45 49 58q32 29 68 29q20 0 53 -13l33 -13q33 -13 54 -13q29 0 59 30l8 8zM529 54l-19 -52l-40 -1l-88 -4l-53 -5l-3 69l-43 -35q-54 -44 -116 -44
q-64 0 -102.5 43t-38.5 108q0 116 118 141q20 4 101 17q31 5 40 9q19 9 19 32q0 70 -90 70q-71 0 -123 -48l-17 8l14 111q88 31 179 31q155 0 189 -90q10 -25 10 -94l1 -139l2 -62q2 -66 45 -66h6zM309 189v3l-1 38q-60 -4 -82 -16q-32 -17 -32 -62q0 -28 14 -45
q15 -20 42 -20q29 0 46 23q13 17 13 79z" />
    <glyph glyph-name="adieresis" unicode="&#xe4;" horiz-adv-x="539" 
d="M449 636q0 -52 -17.5 -65.5t-71.5 -13.5q-36 0 -47.5 12.5t-11.5 48.5q0 55 17 71.5t72 16.5q36 0 47.5 -12.5t11.5 -49.5v-8zM237 636q0 -52 -17.5 -65.5t-71.5 -13.5q-35 0 -47 13t-12 48q0 55 17 71.5t72 16.5q36 0 47.5 -12.5t11.5 -49.5v-8zM523 54l-19 -52l-40 -1
l-88 -4l-53 -5l-3 69l-43 -35q-54 -44 -116 -44q-64 0 -102.5 43t-38.5 108q0 116 118 141q20 4 101 17q31 5 40 9q19 9 19 32q0 70 -90 70q-71 0 -123 -48l-17 8l14 111q88 31 179 31q155 0 189 -90q10 -25 10 -94l1 -139l2 -62q2 -66 45 -66h6zM303 189v3l-1 38
q-60 -4 -82 -16q-32 -17 -32 -62q0 -28 14 -45q15 -20 42 -20q29 0 46 23q13 17 13 79z" />
    <glyph glyph-name="aring" unicode="&#xe5;" horiz-adv-x="550" 
d="M380 628q0 -43 -30 -71.5t-73 -28.5q-42 0 -69.5 25t-27.5 67q0 43 31 70.5t74 27.5q40 0 67.5 -25t27.5 -65zM529 54l-19 -52l-40 -1l-88 -4l-53 -5l-3 69l-43 -35q-54 -44 -116 -44q-64 0 -102.5 43t-38.5 108q0 116 118 141q20 4 101 17q31 5 40 9q19 9 19 32
q0 70 -90 70q-71 0 -123 -48l-17 8l14 111q88 31 179 31q155 0 189 -90q10 -25 10 -94l1 -139l2 -62q2 -66 45 -66h6zM324 626q0 55 -43 55q-46 0 -46 -62q0 -53 43 -53q46 0 46 60zM309 189v3l-1 38q-60 -4 -82 -16q-32 -17 -32 -62q0 -28 14 -45q15 -20 42 -20q29 0 46 23
q13 17 13 79z" />
    <glyph glyph-name="ae" unicode="&#xe6;" horiz-adv-x="783" 
d="M755 301q0 -7 -2 -43l-14 -15l-43 1l-184 1l-45 -2q5 -75 46.5 -117t115.5 -42q55 0 102 35l17 -10l-24 -55l-17 -51q-72 -23 -154 -23q-75 0 -137 31q-38 19 -70 62q-38 -34 -59 -49q-57 -41 -119 -41q-65 0 -103.5 42t-38.5 108q0 116 118 141q20 4 101 17q31 5 40 9
q19 9 19 32q0 70 -90 70q-71 0 -123 -48l-17 8l14 111q84 31 179 31q72 0 124 -34q73 43 146 43q101 0 159.5 -56t58.5 -156zM594 366q0 34 -16 57.5t-48 23.5q-66 0 -66 -102v-30h28l51 2q51 2 51 49zM309 189v3l-1 38q-60 -4 -82 -16q-32 -17 -32 -62q0 -28 14 -45
q15 -20 42 -20q29 0 46 23q13 17 13 79z" />
    <glyph glyph-name="ccedilla" unicode="&#xe7;" horiz-adv-x="493" 
d="M469 480l-12 -40l-11 -53l-5 -39l-22 -2q-43 76 -108 76q-54 0 -80 -52q-20 -39 -20 -99q0 -74 30 -121q36 -57 105 -57q47 0 97 36l18 -10l-25 -55l-17 -52q-10 -4 -36 -13q-42 -14 -101 -14q-117 0 -186 71.5t-69 189.5q0 125 81 197q78 70 204 70q34 0 59 -4
q44 -7 98 -29zM356 -137q0 -53 -41 -85q-37 -29 -92 -29h-11l1 23v25q69 3 69 52q0 41 -42 41q-11 0 -25 -6l-9 2q-13 21 -13 34q0 17 70 56q93 -34 93 -113z" />
    <glyph glyph-name="egrave" unicode="&#xe8;" horiz-adv-x="520" 
d="M337 558l-24 -16l-19 -16l-73 56l-82 61l-64 43l10 14l27 -3l140 -5l20 -38l37 -59zM497 301q0 -21 -2 -43l-13 -15l-44 1l-183 1l-45 -2q4 -74 45.5 -116.5t115.5 -42.5q56 0 102 35l18 -10l-24 -55l-18 -51q-72 -23 -153 -23q-122 0 -195.5 73t-73.5 195
q0 117 67.5 191.5t183.5 74.5q102 0 160.5 -55.5t58.5 -157.5zM336 366q0 81 -63 81q-67 0 -67 -102v-30h29l50 2q51 2 51 49z" />
    <glyph glyph-name="eacute" unicode="&#xe9;" horiz-adv-x="520" 
d="M492 686l-64 -43l-154 -117l-20 16l-24 16l28 37l37 59l20 38l46 2l94 3l27 3zM497 301q0 -21 -2 -43l-13 -15l-44 1l-183 1l-45 -2q4 -74 45.5 -116.5t115.5 -42.5q56 0 102 35l18 -10l-24 -55l-18 -51q-72 -23 -153 -23q-122 0 -195.5 73t-73.5 195q0 117 67.5 191.5
t183.5 74.5q102 0 160.5 -55.5t58.5 -157.5zM336 366q0 81 -63 81q-67 0 -67 -102v-30h29l50 2q51 2 51 49z" />
    <glyph glyph-name="ecircumflex" unicode="&#xea;" horiz-adv-x="525" 
d="M456 558l-24 -16l-20 -16l-67 58l-69 55l-68 -55l-67 -58l-20 16l-24 16l28 37l37 59l21 38l45 2l86 3l54 3l23 -46l37 -59zM497 301q0 -21 -2 -43l-13 -15l-44 1l-183 1l-45 -2q4 -74 45.5 -116.5t115.5 -42.5q56 0 102 35l18 -10l-24 -55l-18 -51q-72 -23 -153 -23
q-122 0 -195.5 73t-73.5 195q0 117 67.5 191.5t183.5 74.5q102 0 160.5 -55.5t58.5 -157.5zM336 366q0 81 -63 81q-67 0 -67 -102v-30h29l50 2q51 2 51 49z" />
    <glyph glyph-name="edieresis" unicode="&#xeb;" horiz-adv-x="525" 
d="M456 636q0 -52 -17.5 -65.5t-71.5 -13.5q-36 0 -47.5 12.5t-11.5 48.5q0 55 17 71.5t72 16.5q36 0 47.5 -12.5t11.5 -49.5v-8zM244 636q0 -52 -17.5 -65.5t-71.5 -13.5q-35 0 -47 13t-12 48q0 55 17 71.5t72 16.5q36 0 47.5 -12.5t11.5 -49.5v-8zM497 301q0 -21 -2 -43
l-13 -15l-44 1l-183 1l-45 -2q4 -74 45.5 -116.5t115.5 -42.5q56 0 102 35l18 -10l-24 -55l-18 -51q-72 -23 -153 -23q-122 0 -195.5 73t-73.5 195q0 117 67.5 191.5t183.5 74.5q102 0 160.5 -55.5t58.5 -157.5zM336 366q0 81 -63 81q-67 0 -67 -102v-30h29l50 2q51 2 51 49
z" />
    <glyph glyph-name="igrave" unicode="&#xec;" horiz-adv-x="327" 
d="M243 558l-24 -16l-19 -16l-73 56l-82 61l-64 43l10 14l27 -3l140 -5l20 -38l37 -59zM269 0l-56 2h-91l-52 -2q4 24 7 45q4 32 6 145l2 113q1 61 -3 83q-10 52 -49 52h-8l20 50l50 2l105 2l59 3l-4 -57q-5 -71 -5 -110v-139q0 -131 19 -189z" />
    <glyph glyph-name="iacute" unicode="&#xed;" horiz-adv-x="327" 
d="M349 686l-64 -43l-154 -117l-20 16l-24 16l28 37l37 59l20 38l46 2l94 3l27 3zM269 0l-56 2h-91l-52 -2q4 24 7 45q4 32 6 145l2 113q1 61 -3 83q-10 52 -49 52h-8l20 50l50 2l105 2l59 3l-4 -57q-5 -71 -5 -110v-139q0 -131 19 -189z" />
    <glyph glyph-name="icircumflex" unicode="&#xee;" horiz-adv-x="327" 
d="M343 558l-24 -16l-20 -16l-67 58l-69 55l-68 -55l-67 -58l-20 16l-24 16l28 37l37 59l21 38l45 2l86 3l54 3l23 -46l37 -59zM269 0l-56 2h-91l-52 -2q4 24 7 45q4 32 6 145l2 113q1 61 -3 83q-10 52 -49 52h-8l20 50l50 2l105 2l59 3l-4 -57q-5 -71 -5 -110v-139
q0 -131 19 -189z" />
    <glyph glyph-name="idieresis" unicode="&#xef;" horiz-adv-x="314" 
d="M345 636q0 -52 -17.5 -65.5t-71.5 -13.5q-36 0 -47.5 12.5t-11.5 48.5q0 55 17 71.5t72 16.5q36 0 47.5 -12.5t11.5 -49.5v-8zM133 636q0 -52 -17.5 -65.5t-71.5 -13.5q-35 0 -47 13t-12 48q0 55 17 71.5t72 16.5q36 0 47.5 -12.5t11.5 -49.5v-8zM262 0l-56 2h-91l-52 -2
q4 24 7 45q4 32 6 145l2 113q1 61 -3 83q-10 52 -49 52h-8l20 50l50 2l105 2l59 3l-4 -57q-5 -71 -5 -110v-139q0 -131 19 -189z" />
    <glyph glyph-name="ntilde" unicode="&#xf1;" horiz-adv-x="648" 
d="M513 660q-20 -28 -38 -47q-42 -43 -80 -43q-20 0 -53 13l-33 13q-33 13 -54 13q-29 0 -59 -30l-8 -8l-34 34q35 45 49 58q32 29 68 29q20 0 53 -13l33 -13q33 -13 54 -13q29 0 59 30l8 8zM592 0l-56 2h-92l-51 -2q12 80 12 190v96q0 43 -6 61q-13 40 -62 40
q-88 0 -88 -122v-76q0 -128 20 -189l-56 2h-92l-51 -2l6 45q5 38 6 145l1 113q1 69 -2 83q-10 52 -49 52h-8l21 50l50 2l93 2l58 3l-3 -83l41 34q64 53 139 53q151 0 150 -168l-1 -142q-1 -125 20 -189z" />
    <glyph glyph-name="ograve" unicode="&#xf2;" horiz-adv-x="597" 
d="M344 558l-24 -16l-19 -16l-73 56l-82 61l-64 43l10 14l27 -3l140 -5l20 -38l37 -59zM570 265q0 -133 -74.5 -206.5t-207.5 -73.5q-125 0 -193 63t-68 187q0 133 75 204t209 71q259 0 259 -245zM392 239q0 205 -92 205h-4q-60 0 -80 -70q-11 -38 -11 -119q0 -83 11 -126
q20 -79 81 -79q62 0 83 69q12 39 12 120z" />
    <glyph glyph-name="oacute" unicode="&#xf3;" horiz-adv-x="597" 
d="M533 684l-64 -43l-154 -117l-20 16l-24 16l28 37l37 59l20 38l46 2l94 3l27 3zM570 265q0 -133 -74.5 -206.5t-207.5 -73.5q-125 0 -193 63t-68 187q0 133 75 204t209 71q259 0 259 -245zM392 239q0 205 -92 205h-4q-60 0 -80 -70q-11 -38 -11 -119q0 -83 11 -126
q20 -79 81 -79q62 0 83 69q12 39 12 120z" />
    <glyph glyph-name="ocircumflex" unicode="&#xf4;" horiz-adv-x="597" 
d="M478 558l-24 -16l-20 -16l-67 58l-69 55l-68 -55l-67 -58l-20 16l-24 16l28 37l37 59l21 38l45 2l86 3l54 3l23 -46l37 -59zM570 265q0 -133 -74.5 -206.5t-207.5 -73.5q-125 0 -193 63t-68 187q0 133 75 204t209 71q259 0 259 -245zM392 239q0 205 -92 205h-4
q-60 0 -80 -70q-11 -38 -11 -119q0 -83 11 -126q20 -79 81 -79q62 0 83 69q12 39 12 120z" />
    <glyph glyph-name="otilde" unicode="&#xf5;" horiz-adv-x="597" 
d="M494 660q-20 -28 -38 -47q-42 -43 -80 -43q-20 0 -53 13l-33 13q-33 13 -54 13q-29 0 -59 -30l-8 -8l-34 34q35 45 49 58q32 29 68 29q20 0 53 -13l33 -13q33 -13 54 -13q29 0 59 30l8 8zM570 265q0 -133 -74.5 -206.5t-207.5 -73.5q-125 0 -193 63t-68 187q0 133 75 204
t209 71q259 0 259 -245zM392 239q0 205 -92 205h-4q-60 0 -80 -70q-11 -38 -11 -119q0 -83 11 -126q20 -79 81 -79q62 0 83 69q12 39 12 120z" />
    <glyph glyph-name="odieresis" unicode="&#xf6;" horiz-adv-x="597" 
d="M484 636q0 -52 -17.5 -65.5t-71.5 -13.5q-36 0 -47.5 12.5t-11.5 48.5q0 55 17 71.5t72 16.5q36 0 47.5 -12.5t11.5 -49.5v-8zM272 636q0 -52 -17.5 -65.5t-71.5 -13.5q-35 0 -47 13t-12 48q0 55 17 71.5t72 16.5q36 0 47.5 -12.5t11.5 -49.5v-8zM570 265
q0 -133 -74.5 -206.5t-207.5 -73.5q-125 0 -193 63t-68 187q0 133 75 204t209 71q259 0 259 -245zM392 239q0 205 -92 205h-4q-60 0 -80 -70q-11 -38 -11 -119q0 -83 11 -126q20 -79 81 -79q62 0 83 69q12 39 12 120z" />
    <glyph glyph-name="divide" unicode="&#xf7;" 
d="M344 433q0 -27 -17.5 -45.5t-44.5 -18.5q-28 0 -47.5 17.5t-19.5 45.5q0 27 18.5 47t45.5 20q28 0 46.5 -19t18.5 -47zM548 240h-534v101h534v-101zM345 147q0 -27 -17.5 -46t-44.5 -19q-29 0 -48 17.5t-19 46.5q0 27 18.5 46.5t45.5 19.5q28 0 46.5 -18.5t18.5 -46.5z
" />
    <glyph glyph-name="oslash" unicode="&#xf8;" horiz-adv-x="561" 
d="M612 537q-50 -45 -108 -106q51 -69 51 -167q0 -132 -74.5 -205.5t-206.5 -73.5q-71 0 -125 19q-15 -18 -59 -75l-52 8l-45 6l-7 11q45 40 96 93q-7 8 -21 23q-48 65 -48 165q0 133 75.5 204t209.5 71q97 0 146 -31q31 37 65 84l51 -7l45 -7zM361 378q-21 66 -78 66
q-60 0 -81 -70q-12 -41 -12 -119q0 -35 4 -79zM377 235v16q-1 11 -1 18v12l-159 -192q21 -39 64 -39q61 0 83 67q13 40 13 118z" />
    <glyph glyph-name="ugrave" unicode="&#xf9;" horiz-adv-x="644" 
d="M374 558l-24 -16l-19 -16l-73 56l-82 61l-64 43l10 14l27 -3l140 -5l20 -38l37 -59zM620 54l-21 -50l-41 -2l-90 -3l-58 -3l-8 85l-42 -35q-65 -54 -136 -54q-148 0 -146 169l2 142q1 64 -10 142q-4 26 -13 46l58 -1l92 1l51 2q-2 -13 -5 -46q-6 -70 -7 -145l-1 -105
q0 -35 5 -52q13 -40 61 -40q84 0 84 122v76q0 77 -9 142q-2 17 -13 46l58 -1l92 1l51 2q-13 -78 -13 -191v-113q0 -72 2 -83q9 -52 48 -52h9z" />
    <glyph glyph-name="uacute" unicode="&#xfa;" horiz-adv-x="644" 
d="M549 686l-64 -43l-154 -117l-20 16l-24 16l28 37l37 59l20 38l46 2l94 3l27 3zM620 54l-21 -50l-41 -2l-90 -3l-58 -3l-8 85l-42 -35q-65 -54 -136 -54q-148 0 -146 169l2 142q1 64 -10 142q-4 26 -13 46l58 -1l92 1l51 2q-2 -13 -5 -46q-6 -70 -7 -145l-1 -105
q0 -35 5 -52q13 -40 61 -40q84 0 84 122v76q0 77 -9 142q-2 17 -13 46l58 -1l92 1l51 2q-13 -78 -13 -191v-113q0 -72 2 -83q9 -52 48 -52h9z" />
    <glyph glyph-name="ucircumflex" unicode="&#xfb;" horiz-adv-x="644" 
d="M504 558l-24 -16l-20 -16l-67 58l-69 55l-68 -55l-67 -58l-20 16l-24 16l28 37l37 59l21 38l45 2l86 3l54 3l23 -46l37 -59zM620 54l-21 -50l-41 -2l-90 -3l-58 -3l-8 85l-42 -35q-65 -54 -136 -54q-148 0 -146 169l2 142q1 64 -10 142q-4 26 -13 46l58 -1l92 1l51 2
q-2 -13 -5 -46q-6 -70 -7 -145l-1 -105q0 -35 5 -52q13 -40 61 -40q84 0 84 122v76q0 77 -9 142q-2 17 -13 46l58 -1l92 1l51 2q-13 -78 -13 -191v-113q0 -72 2 -83q9 -52 48 -52h9z" />
    <glyph glyph-name="udieresis" unicode="&#xfc;" horiz-adv-x="644" 
d="M502 636q0 -52 -17.5 -65.5t-71.5 -13.5q-36 0 -47.5 12.5t-11.5 48.5q0 55 17 71.5t72 16.5q36 0 47.5 -12.5t11.5 -49.5v-8zM290 636q0 -52 -17.5 -65.5t-71.5 -13.5q-35 0 -47 13t-12 48q0 55 17 71.5t72 16.5q36 0 47.5 -12.5t11.5 -49.5v-8zM620 54l-21 -50l-41 -2
l-90 -3l-58 -3l-8 85l-42 -35q-65 -54 -136 -54q-148 0 -146 169l2 142q1 64 -10 142q-4 26 -13 46l58 -1l92 1l51 2q-2 -13 -5 -46q-6 -70 -7 -145l-1 -105q0 -35 5 -52q13 -40 61 -40q84 0 84 122v76q0 77 -9 142q-2 17 -13 46l58 -1l92 1l51 2q-13 -78 -13 -191v-113
q0 -72 2 -83q9 -52 48 -52h9z" />
    <glyph glyph-name="ydieresis" unicode="&#xff;" horiz-adv-x="542" 
d="M487 636q0 -52 -17.5 -65.5t-71.5 -13.5q-36 0 -47.5 12.5t-11.5 48.5q0 55 17 71.5t72 16.5q36 0 47.5 -12.5t11.5 -49.5v-8zM275 636q0 -52 -17.5 -65.5t-71.5 -13.5q-35 0 -47 13t-12 48q0 55 17 71.5t72 16.5q36 0 47.5 -12.5t11.5 -49.5v-8zM552 480
q-44 -51 -93 -173l-153 -383q-28 -70 -28 -118q0 -14 4 -38h-51l-68 -1l-38 -3l-7 15q39 42 94 174l20 48h-52q-7 51 -22 96l-69 206q-25 74 -45 110q-14 25 -45 25h-8l20 50l50 2l105 2l56 3q0 -6 2 -29q4 -47 28 -132l37 -132l12 -49l19 54l48 129q28 75 28 123
q0 12 -4 32h51l64 1l39 3z" />
    <glyph glyph-name="dotlessi" unicode="&#x131;" horiz-adv-x="327" 
d="M269 0l-56 2h-91l-52 -2q4 24 7 45q4 32 6 145l2 113q1 61 -3 83q-10 52 -49 52h-8l20 50l50 2l105 2l59 3l-4 -57q-5 -71 -5 -110v-139q0 -131 19 -189z" />
    <glyph glyph-name="OE" unicode="&#x152;" horiz-adv-x="1108" 
d="M1087 141l-13 -53l-8 -53l-5 -39l-39 3l-322 3l-154 -2q-92 -22 -147 -22q-165 0 -263.5 99t-98.5 264q0 169 109.5 275t279.5 106q67 0 155 -27h95l321 2q1 0 8 1h13h29l-11 -39l-15 -61l-7 -35l-20 -2q-22 32 -49 41q-41 14 -98 14q-8 0 -58 -2l-4 -95l-1 -89h112
q37 0 107 6l-2 -25l-2 -45l3 -34q-99 6 -140 6q-2 0 -78 -2v-158q0 -56 34 -75q25 -14 86 -14q102 0 160 58zM605 339q0 117 -30 190q-43 106 -142 106q-175 0 -175 -278q0 -293 176 -293q171 0 171 275z" />
    <glyph glyph-name="oe" unicode="&#x153;" horiz-adv-x="873" 
d="M845 301q0 -7 -2 -43l-14 -15l-43 1l-183 1l-46 -2q5 -75 46.5 -117t115.5 -42q56 0 102 35l18 -10l-25 -55l-17 -51q-72 -23 -153 -23q-93 0 -180 59q-5 -4 -21 -14q-64 -41 -158 -41q-123 0 -190.5 64.5t-67.5 186.5q0 132 75 203.5t208 71.5q98 0 165 -45
q68 48 153 48q100 0 158.5 -56t58.5 -156zM684 366q0 81 -63 81q-67 0 -67 -102v-30h28l51 2q51 2 51 49zM392 239q0 205 -92 205h-4q-60 0 -80 -70q-11 -38 -11 -119q0 -83 11 -126q20 -79 81 -79q62 0 83 69q12 39 12 120z" />
    <glyph glyph-name="Ydieresis" unicode="&#x178;" horiz-adv-x="676" 
d="M558 806q0 -49 -22 -62q-14 -8 -67 -8q-34 0 -46.5 10.5t-12.5 43.5q0 52 19 66q15 11 70 11q35 0 47 -10t12 -44v-7zM346 806q0 -47 -21 -60q-16 -10 -68 -10q-34 0 -46.5 10.5t-12.5 43.5q0 52 19 66q15 11 70 11q35 0 47 -10t12 -44v-7zM669 681q-4 -5 -25 -31
q-51 -65 -85 -132l-86 -172l-40 -85l-1 -84q-1 -109 20 -177l-56 2h-124l-52 -2q13 78 13 190v74l-162 311q-22 43 -38 56q-11 9 -36 9h-8l20 56l57 -1h137l55 2q10 -66 38 -129l83 -187l72 163q30 68 30 129q0 12 -1 23l57 -1h79l51 1z" />
    <glyph glyph-name="florin" unicode="&#x192;" 
d="M667 700l-14 -35l-20 -56l-14 -47l-21 -4q-21 35 -35 47q-25 21 -56 21q-25 0 -39 -13q-28 -18 -42 -67q-5 -17 -14 -80l-7 -47q35 -3 67 -3q45 0 84 9l6 -11l-20 -37l-19 -41q-48 5 -94 5q-24 0 -36 -1l-42 -265q-49 -312 -321 -312q-61 0 -116 17l15 38l32 101l20 4
q41 -70 91 -70q79 0 102 144q2 11 10 65l42 278q-36 3 -72 3q-37 0 -75 -8l-6 11l20 37l19 41q44 -5 125 -5q6 35 16 73q23 89 92 150q86 76 208 76q60 0 114 -18z" />
    <glyph glyph-name="circumflex" unicode="&#x2c6;" horiz-adv-x="478" 
d="M418 558l-24 -16l-20 -16l-67 58l-69 55l-68 -55l-67 -58l-20 16l-24 16l28 37l37 59l21 38l45 2l86 3l54 3l23 -46l37 -59z" />
    <glyph glyph-name="caron" unicode="&#x2c7;" horiz-adv-x="478" 
d="M418 669l-28 -38l-37 -59l-20 -38l-46 -2l-86 -3l-54 -3l-23 46l-37 59l-28 38l24 16l20 15l68 -58l68 -55l69 55l66 58l20 -15z" />
    <glyph glyph-name="breve" unicode="&#x2d8;" horiz-adv-x="478" 
d="M389 721q-13 -132 -154 -132q-143 0 -146 134l72 8q3 -45 80 -45q27 0 51 10q30 12 33 35z" />
    <glyph glyph-name="dotaccent" unicode="&#x2d9;" horiz-adv-x="478" 
d="M334 631q0 -58 -28 -74q-21 -12 -85 -12q-43 0 -59 11q-19 14 -19 55q0 64 26 82q19 13 89 13q44 0 60 -12t16 -55v-8z" />
    <glyph glyph-name="ring" unicode="&#x2da;" horiz-adv-x="478" 
d="M339 628q1 -43 -29.5 -71.5t-73.5 -28.5q-42 0 -69.5 25t-27.5 67q0 43 30.5 70.5t73.5 27.5q40 0 67.5 -25t28.5 -65zM283 626q0 55 -43 55q-46 0 -46 -62q0 -53 43 -53q46 0 46 60z" />
    <glyph glyph-name="ogonek" unicode="&#x2db;" horiz-adv-x="478" 
d="M339 -102q-13 -41 -15 -68q-43 -20 -84 -20q-42 0 -71.5 26.5t-29.5 67.5q0 51 54 91q43 32 93 43l28 -38q-32 -5 -57 -27t-26 -53q0 -15 12.5 -26t27.5 -11q28 0 59 22z" />
    <glyph glyph-name="tilde" unicode="&#x2dc;" horiz-adv-x="478" 
d="M418 660q-20 -28 -38 -47q-42 -43 -80 -43q-20 0 -53 13l-33 13q-33 13 -54 13q-29 0 -59 -30l-8 -8l-34 34q33 43 50 58q32 29 68 29q19 0 52 -13l33 -13q33 -13 55 -13q28 0 58 30l8 8z" />
    <glyph glyph-name="hungarumlaut" unicode="&#x2dd;" horiz-adv-x="478" 
d="M474 686l-64 -43l-154 -117l-20 16l-24 16l28 37l37 59l20 38l46 2l94 3l27 3zM266 686l-64 -43l-82 -61l-72 -56l-20 16l-24 16l28 37l37 59l20 38l46 2l94 3l27 3z" />
    <glyph glyph-name="pi" unicode="&#x3c0;" horiz-adv-x="722" 
d="M720 343q0 -149 -98.5 -252.5t-247.5 -103.5q-146 0 -245.5 103t-99.5 249q0 147 100 249.5t246 102.5q144 0 244.5 -101.5t100.5 -246.5zM655 335q0 123 -79.5 209.5t-201.5 86.5q-120 0 -200 -85.5t-80 -206.5q0 -120 81 -206.5t200 -86.5q118 0 199 85t81 204z
M544 423q0 -37 -20 -69.5t-53 -45.5q-41 -16 -96 -10l5 20l3 21h4q67 0 67 66q0 68 -67 68q-4 0 -23 -2l-1 -47l-1 -174q0 -62 10 -97l-24 1h-57l-23 -1q2 9 3 23q3 20 3 74l1 163q0 59 -12 67q-6 3 -17 3h-4l11 28q21 -1 85 -1h114q42 0 67 -23t25 -64z" />
    <glyph glyph-name="endash" unicode="&#x2013;" 
d="M559 325l-12 -45l-13 -46q-65 9 -138 9h-228q-103 0 -160 -14l-8 11l14 45l12 45q66 -8 139 -8h228q102 0 160 14z" />
    <glyph glyph-name="emdash" unicode="&#x2014;" horiz-adv-x="929" 
d="M929 325l-13 -45l-12 -46q-66 9 -138 9h-598q-103 0 -160 -14l-8 11l14 45l12 45q66 -8 138 -8h598q103 0 160 14z" />
    <glyph glyph-name="quoteleft" unicode="&#x2018;" horiz-adv-x="299" 
d="M227 414q-2 -2 -30 -24q-46 -36 -66 -36q-17 0 -35 21q-39 46 -39 111t46 137q23 36 66 92l23 -17l25 -18q-3 -4 -19 -33q-30 -53 -30 -96q0 -66 57 -119z" />
    <glyph glyph-name="quoteright" unicode="&#x2019;" horiz-adv-x="299" 
d="M228 583q0 -65 -46 -137q-23 -36 -66 -92l-23 17l-25 18l19 33q30 52 30 96q0 66 -57 119l-2 18q4 3 30 24q45 36 66 36q18 0 36 -21q38 -44 38 -111z" />
    <glyph glyph-name="quotesinglbase" unicode="&#x201a;" horiz-adv-x="299" 
d="M228 20q0 -65 -46 -137q-23 -36 -66 -92l-23 16l-25 19q3 4 19 33q30 53 30 96q0 66 -57 119l-2 18q4 3 30 24q45 36 66 36q17 0 36 -22q38 -44 38 -110z" />
    <glyph glyph-name="quotedblleft" unicode="&#x201c;" horiz-adv-x="500" 
d="M429 414q-8 -6 -31 -24q-46 -36 -65 -36q-18 0 -36 21q-39 46 -39 111q0 66 46 137q14 22 67 92l23 -17l25 -18q-5 -8 -19 -33q-31 -55 -31 -96q0 -67 58 -119zM227 414q-2 -2 -30 -24q-46 -36 -66 -36q-17 0 -35 21q-39 46 -39 111q0 47 18 86q22 48 94 143l23 -17
l25 -18q-3 -4 -19 -33q-30 -53 -30 -96q0 -45 28 -87q10 -15 29 -32z" />
    <glyph glyph-name="quotedblright" unicode="&#x201d;" horiz-adv-x="500" 
d="M430 583q0 -85 -113 -229l-23 17l-25 18l19 33q31 54 31 96q0 71 -58 119l-1 18l30 24q45 36 65 36q18 0 36 -21q39 -45 39 -111zM228 583q0 -65 -46 -137q-23 -36 -66 -92l-23 17l-25 18l19 33q30 52 30 96q0 45 -28 87q-10 15 -29 32l-2 18l30 24q45 36 66 36
q18 0 36 -21q38 -45 38 -111z" />
    <glyph glyph-name="quotedblbase" unicode="&#x201e;" horiz-adv-x="500" 
d="M430 20q0 -85 -113 -229l-23 16l-25 19q5 8 19 33q31 55 31 96q0 71 -58 119l-1 18l30 24q45 36 65 36q17 0 36 -22q39 -45 39 -110zM228 20q0 -65 -46 -137q-23 -36 -66 -92l-23 16l-25 19q3 4 19 33q30 53 30 96q0 45 -28 87q-10 15 -29 32l-2 18l30 24q45 36 66 36
q17 0 36 -22q38 -45 38 -110z" />
    <glyph glyph-name="dagger" unicode="&#x2020;" horiz-adv-x="480" 
d="M477 462l-2 -26l-1 -44l2 -39q-15 5 -38 11q-32 8 -102 8h-26l-23 -24l1 -346q0 -117 30 -234l-49 2h-54l-53 -2q10 38 14 58q16 83 16 176l1 346l-23 24h-26q-83 0 -140 -19l1 39v44l-2 26q28 -5 93 -11q13 -2 49 -4l27 -1l21 25l-2 64q0 18 -3 68q-2 30 -26 93l48 -1
h58l50 1l-1 -3q-5 -12 -14 -40q-15 -50 -15 -118v-64l19 -25l28 1q40 1 105 9q17 2 37 6z" />
    <glyph glyph-name="daggerdbl" unicode="&#x2021;" horiz-adv-x="480" 
d="M477 31q-25 3 -37 6l-105 9h-28l-20 -25l1 -91q1 -46 4 -68q6 -37 26 -93l-48 1h-58l-50 -1l1 4q11 28 14 39q15 51 15 118v91l-20 25h-27q-4 0 -49 -4l-56 -5q-12 -3 -37 -6l2 26v44l-1 39q27 -10 38 -11q28 -8 102 -8h26l23 23v204l-23 24h-26q-83 0 -140 -19l1 39v44
l-2 26q28 -5 93 -11q13 -2 49 -4l27 -1l21 25l-2 64q0 18 -3 68q-2 30 -26 93l48 -1h58l50 1l-1 -3q-5 -12 -14 -40q-15 -50 -15 -118v-64l19 -25l28 1q40 1 105 9q17 2 37 6l-2 -26l-1 -44l2 -39q-15 5 -38 11q-32 8 -102 8h-26l-23 -24v-204l23 -23h26q34 0 54 1
q42 2 86 18l-2 -39l1 -44z" />
    <glyph glyph-name="bullet" unicode="&#x2022;" horiz-adv-x="512" 
d="M389 337q0 -56 -39 -95t-95 -39q-55 0 -93.5 39t-38.5 94q0 56 38.5 95t94.5 39q55 0 94 -39t39 -94z" />
    <glyph glyph-name="ellipsis" unicode="&#x2026;" horiz-adv-x="854" 
d="M791 79q0 -56 -18 -73t-75 -17q-38 0 -50 15t-12 54q0 61 17 80.5t77 19.5q39 0 50 -15t11 -55v-9zM525 79q0 -56 -18.5 -73t-75.5 -17q-37 0 -49 15t-12 54q0 62 16.5 81t76.5 19q39 0 50.5 -15t11.5 -55v-9zM259 88q0 -6 -1 -9q-1 -56 -14 -71q-16 -19 -79 -19
q-38 0 -50 15t-12 54q0 61 17 80.5t77 19.5q39 0 50.5 -15t11.5 -55z" />
    <glyph glyph-name="perthousand" unicode="&#x2030;" horiz-adv-x="1274" 
d="M1265 186q0 -95 -54 -148t-149 -53q-188 0 -188 180q0 95 54 146.5t150 51.5q187 0 187 -177zM842 186q0 -96 -54 -148.5t-150 -52.5q-187 0 -187 180q0 95 54 146.5t150 51.5q187 0 187 -177zM704 737q-11 -16 -36 -51q-4 -6 -57 -93q-16 -24 -55 -95l-272 -528l-55 -5
l-55 -9l-9 11q10 13 37 50q53 77 110 188l273 528l54 5l55 10zM403 519q0 -96 -53.5 -149t-149.5 -53q-187 0 -187 181q0 95 54 146.5t150 51.5q186 0 186 -177zM1137 178q0 138 -65 138q-47 0 -62 -56q-8 -30 -8 -94q0 -134 65 -134q70 0 70 146zM713 178q0 138 -64 138
q-47 0 -62 -56q-8 -30 -8 -94q0 -134 65 -134q45 0 61 55q8 28 8 91zM275 512q0 136 -64 136q-48 0 -63 -56q-8 -30 -8 -94q0 -133 66 -133q46 0 61 55q8 30 8 92z" />
    <glyph glyph-name="guilsinglleft" unicode="&#x2039;" horiz-adv-x="377" 
d="M321 101l-27 -19l-28 -22l-24 26l-126 112q-28 25 -62 49v41q23 16 62 50l126 111l24 27l28 -22l27 -19l-27 -31l-99 -134l99 -138z" />
    <glyph glyph-name="guilsinglright" unicode="&#x203a;" horiz-adv-x="377" 
d="M323 247q-27 -18 -62 -49l-126 -112l-24 -26l-28 22l-27 19l28 31l98 133l-98 139l-28 31l27 19l28 22l24 -27l126 -111q38 -33 62 -50v-41z" />
    <glyph glyph-name="fraction" unicode="&#x2044;" 
d="M580 669q-84 -92 -167 -226l-313 -505l-56 -1l-55 -5l-8 12l40 47q52 61 125 179l313 505l55 1l55 5z" />
    <glyph glyph-name="trademark" unicode="&#x2122;" horiz-adv-x="971" 
d="M979 280l-33 1h-75l-31 -1q4 26 4 61v9q0 17 -1 44l-7 189l-26 -57l-77 -178q-19 -44 -22 -72l-23 1l-28 -1h-24q-2 11 -3 16q-12 36 -18 51l-101 238l-2 -48l-8 -139q-1 -17 -1 -36q0 -50 8 -78l-35 1h-27l-30 -1q12 38 17 112l14 188q2 27 2 39v3q0 42 -33 42h-5l13 33
l176 1q5 -27 15 -53l84 -215l15 34l74 175q9 22 17 59l37 -1h112q-3 -26 -3 -56q0 -17 1 -43l8 -206q3 -74 16 -112zM402 699l-7 -24l-9 -36l-4 -22l-12 -1q-15 20 -29 25q-23 8 -57 8q-14 0 -26 -1l-2 -49v-206q0 -78 12 -113l-34 1h-75l-31 -1q8 46 8 114l-1 254h-6
q-85 0 -125 -36l-11 6l4 24l6 30l4 27q48 -2 193 -3q115 -1 202 3z" />
    <glyph glyph-name="approxequal" unicode="&#x2248;" 
d="M489 401q-57 -66 -124 -66q-32 0 -84 25l-25 12q-38 18 -57 18q-24 0 -41 -12q-11 -8 -43 -45l-44 83q53 76 124 76q23 0 83 -25l29 -12q27 -11 59 -20q37 -1 82 50zM489 212q-57 -66 -124 -66q-32 0 -84 25l-25 12q-38 18 -57 18q-24 0 -41 -12q-11 -8 -43 -45l-44 83
q53 76 124 76q23 0 83 -25l29 -12q27 -11 59 -20q37 -1 82 50z" />
    <glyph glyph-name="approxequal" unicode="&#x22f2;" 
d="M489 401q-57 -66 -124 -66q-32 0 -84 25l-25 12q-38 18 -57 18q-24 0 -41 -12q-11 -8 -43 -45l-44 83q53 76 124 76q23 0 83 -25l29 -12q27 -11 59 -20q37 -1 82 50zM489 212q-57 -66 -124 -66q-32 0 -84 25l-25 12q-38 18 -57 18q-24 0 -41 -12q-11 -8 -43 -45l-44 83
q53 76 124 76q23 0 83 -25l29 -12q27 -11 59 -20q37 -1 82 50z" />
    <glyph glyph-name="notequal" unicode="&#x2260;" 
d="M547 159h-301l-119 -163l-83 59l76 104h-107v102h181l47 65h-228v101h303l129 178l83 -59l-87 -119h106v-101h-180l-47 -65h227v-102z" />
    <glyph glyph-name="lessequal" unicode="&#x2264;" 
d="M547 228l-534 131v140l534 139v-111l-417 -95l417 -94v-110zM547 70h-534v102h534v-102z" />
    <glyph glyph-name="greaterequal" unicode="&#x2265;" 
d="M547 359l-534 -131v110l417 94l-417 95v111l534 -139v-140zM547 70h-534v102h534v-102z" />
    <glyph glyph-name="apple" unicode="&#xf000;" horiz-adv-x="1196" 
d="M1174 444q-1 -43 -38 -60q-24 -11 -75 -13l-75 -3q-4 0 -18 -3q2 -10 2 -24q1 -40 -35 -72q-9 -28 -24 -69q-8 -14 -35 -33q-24 -39 -31 -45q-16 -15 -49 -16q-23 -1 -65.5 19t-36.5 20q-42 -3 -71 -4q-15 0 -70.5 14.5t-64.5 12.5q-17 -35 -33 -33q-26 3 -33 3h-5
q-4 -1 -6 -1q-9 -7 -9 -20q-81 -20 -168 -62q-35 -22 -106 -65q-38 27 -46 40q5 20 29 62q0 1 1 3q-16 74 -22 127q-35 18 -68 40q-1 7 -1 39q40 20 61 27q3 40 7 110q-30 35 -68 91q16 32 27 45q204 -70 328 -70q16 0 30 1q4 -7 17 -17l58 1q17 0 31 -42q7 1 44 15
q26 14 57 29q47 23 63 23q11 -3 32 -5q28 1 95 8q56 6 95 5q127 -2 231 -32q46 -13 45 -46zM1134 439q0 19 -79 32q-89 15 -122 14q-60 -1 -155 -7l2 -2q22 -13 69 -37q5 -2 43 -12q30 -8 35 -16q7 -11 19 -11l41 1q122 3 139 17q10 8 8 21zM938 338q0 9 -4 21h-3
q-30 -56 -98 -58q-18 -1 -50.5 13t-45.5 14h-3v-5q0 -18 42 -39q38 -19 60 -19q35 1 66 19q37 21 36 54zM892 243q-1 1 -1 3q-19 -5 -55 -10q-27 -1 -77 25.5t-43 26.5q-10 -11 -8 -25q0 -31 78 -67q12 -6 44 -5q55 1 62 52zM899 376q0 9 -44 24q-38 13 -50 20t-46 27
q-48 28 -77 27q-22 -1 -136 -56q-15 -7 -64 -13q-17 -53 -17 -146q0 -38 5 -56q25 1 82 -15t83 -16q20 0 40 5v7q-1 4 -1 7l8 34q-4 10 -9 29q0 10 15 52h-1q8 0 8 -2q0 -5 -41 -20q-61 -22 -78 -22q-18 0 -39 14l3 6q39 2 82 22q47 21 67 50q-21 15 -21 32v7h3q-7 0 6 -6
q20 -9 28 -13q23 -6 66 -22q33 -18 64 -17q18 0 39 12q25 13 25 29zM839 163h-33q-39 0 -95 45h-2q-1 -3 1 -23q6 -21 34 -35t51 -13q37 1 44 23l2 2zM179 361q-21 21 -51 44q-5 -20 -5 -63zM180 187q-16 6 -49 17q1 -29 9 -63l1 -1q13 16 39 47z" />
    <glyph glyph-name="fi" unicode="&#xf001;" horiz-adv-x="674" 
d="M617 0l-56 2h-92l-51 -2l6 45q4 34 6 145l1 74q1 67 -2 83q-9 53 -49 53l-124 1l-4 -80v-132q0 -128 20 -189l-56 2h-92l-51 -2l6 45q5 38 6 145l1 110q1 69 -2 83q-9 51 -49 51h-18l21 54h41v7q0 108 65 174q92 94 257 94q107 0 205 -39q-4 -51 -7 -69q-8 -49 -19 -67
q-14 -23 -80 -23h-21l-12 8q-20 105 -117 105q-106 0 -106 -116q0 -10 2 -43l2 -33l74 -1l116 2l168 8q-8 -99 -8 -167l-1 -139q-1 -125 20 -189z" />
    <glyph glyph-name="fl" unicode="&#xf002;" horiz-adv-x="672" 
d="M615 0l-56 2h-92l-51 -2q12 75 12 190l1 383q0 45 -26 73t-71 28q-91 0 -91 -114q0 -8 2 -41l2 -33l79 -1q32 0 67 8l8 -12l-14 -41l-12 -44q-48 5 -81 5h-39l-4 -80v-132q0 -128 20 -189l-56 2h-92l-51 -2l6 45q5 38 6 145l1 110q1 69 -2 83q-9 51 -49 51h-18l21 54h41
q0 114 65 181q90 93 254 93q52 0 129 -19l29 2l51 3l-4 -59q-5 -74 -5 -109v-391q0 -128 20 -189z" />
    <glyph glyph-name="glyph209" horiz-adv-x="278" 
 />
    <glyph glyph-name="glyph209" horiz-adv-x="278" 
 />
    <glyph glyph-name="glyph212" horiz-adv-x="278" 
 />
    <glyph glyph-name="glyph212" horiz-adv-x="278" 
 />
    <glyph glyph-name="glyph217" horiz-adv-x="500" 
 />
  </font>
</defs>
</svg>
